G75*
%MOIN*%
%OFA0B0*%
%FSLAX25Y25*%
%IPPOS*%
%LPD*%
%AMOC8*
5,1,8,0,0,1.08239X$1,22.5*
%
%ADD10C,0.04400*%
%ADD11C,0.02400*%
%ADD12C,0.02781*%
%ADD13C,0.03569*%
%ADD14C,0.02700*%
D10*
X0032200Y0034200D03*
X0042200Y0034200D03*
X0052200Y0034200D03*
D11*
X0022754Y0011032D02*
X0021832Y0010500D01*
X0132508Y0010500D01*
X0130485Y0012321D01*
X0130485Y0012321D01*
X0129081Y0015474D01*
X0129081Y0018926D01*
X0130485Y0022079D01*
X0130485Y0022079D01*
X0133050Y0024388D01*
X0133050Y0024388D01*
X0136332Y0025455D01*
X0136332Y0025455D01*
X0139765Y0025094D01*
X0139765Y0025094D01*
X0142754Y0023368D01*
X0142754Y0023368D01*
X0142754Y0023368D01*
X0143900Y0021790D01*
X0143900Y0031861D01*
X0143586Y0031103D01*
X0142297Y0029814D01*
X0140612Y0029116D01*
X0138788Y0029116D01*
X0137740Y0029550D01*
X0126160Y0029550D01*
X0125112Y0029116D01*
X0123288Y0029116D01*
X0121603Y0029814D01*
X0120314Y0031103D01*
X0119616Y0032788D01*
X0119616Y0034612D01*
X0120314Y0036297D01*
X0121603Y0037586D01*
X0123288Y0038284D01*
X0125112Y0038284D01*
X0126160Y0037850D01*
X0137740Y0037850D01*
X0138788Y0038284D01*
X0140612Y0038284D01*
X0142297Y0037586D01*
X0143586Y0036297D01*
X0143900Y0035539D01*
X0143900Y0095110D01*
X0142754Y0093532D01*
X0142754Y0093532D01*
X0142754Y0093532D01*
X0139765Y0091806D01*
X0139765Y0091806D01*
X0136332Y0091445D01*
X0136332Y0091445D01*
X0133050Y0092512D01*
X0133050Y0092512D01*
X0130485Y0094821D01*
X0130485Y0094821D01*
X0129081Y0097974D01*
X0129081Y0101426D01*
X0130485Y0104579D01*
X0130485Y0104579D01*
X0132508Y0106400D01*
X0021832Y0106400D01*
X0022754Y0105868D01*
X0022754Y0105868D01*
X0022754Y0105868D01*
X0024782Y0103076D01*
X0025500Y0099700D01*
X0024782Y0096324D01*
X0024782Y0096324D01*
X0022754Y0093532D01*
X0022754Y0093532D01*
X0019765Y0091806D01*
X0016332Y0091445D01*
X0016332Y0091445D01*
X0013050Y0092512D01*
X0013050Y0092512D01*
X0010500Y0094808D01*
X0010500Y0022092D01*
X0013050Y0024388D01*
X0013050Y0024388D01*
X0013050Y0024388D01*
X0016332Y0025455D01*
X0016332Y0025455D01*
X0019765Y0025094D01*
X0019765Y0025094D01*
X0022754Y0023368D01*
X0022754Y0023368D01*
X0024782Y0020576D01*
X0024782Y0020576D01*
X0025500Y0017200D01*
X0024782Y0013824D01*
X0024782Y0013824D01*
X0022754Y0011032D01*
X0022754Y0011032D01*
X0022754Y0011032D01*
X0023455Y0011997D02*
X0130845Y0011997D01*
X0129562Y0014396D02*
X0024904Y0014396D01*
X0025414Y0016794D02*
X0129081Y0016794D01*
X0129200Y0019193D02*
X0025076Y0019193D01*
X0024045Y0021591D02*
X0130268Y0021591D01*
X0132608Y0023990D02*
X0021677Y0023990D01*
X0027961Y0031368D02*
X0029368Y0029961D01*
X0031205Y0029200D01*
X0033195Y0029200D01*
X0035032Y0029961D01*
X0036439Y0031368D01*
X0037200Y0033205D01*
X0037200Y0035195D01*
X0036439Y0037032D01*
X0035032Y0038439D01*
X0033195Y0039200D01*
X0031205Y0039200D01*
X0029368Y0038439D01*
X0027961Y0037032D01*
X0027200Y0035195D01*
X0027200Y0033205D01*
X0027961Y0031368D01*
X0028144Y0031185D02*
X0010500Y0031185D01*
X0010500Y0028787D02*
X0143900Y0028787D01*
X0143900Y0031185D02*
X0143620Y0031185D01*
X0143717Y0035982D02*
X0143900Y0035982D01*
X0143900Y0038381D02*
X0053572Y0038381D01*
X0053889Y0038278D02*
X0053230Y0038492D01*
X0052546Y0038600D01*
X0052200Y0038600D01*
X0052200Y0034200D01*
X0052200Y0034200D01*
X0056600Y0034200D01*
X0056600Y0034546D01*
X0056492Y0035230D01*
X0056278Y0035889D01*
X0055963Y0036506D01*
X0055556Y0037066D01*
X0055066Y0037556D01*
X0054506Y0037963D01*
X0053889Y0038278D01*
X0052200Y0038381D02*
X0052200Y0038381D01*
X0052200Y0038600D02*
X0051854Y0038600D01*
X0051170Y0038492D01*
X0050511Y0038278D01*
X0049894Y0037963D01*
X0049334Y0037556D01*
X0048844Y0037066D01*
X0048437Y0036506D01*
X0048122Y0035889D01*
X0047908Y0035230D01*
X0047800Y0034546D01*
X0047800Y0034200D01*
X0052200Y0034200D01*
X0052200Y0034200D01*
X0052200Y0034200D01*
X0052200Y0038600D01*
X0050828Y0038381D02*
X0045090Y0038381D01*
X0045032Y0038439D02*
X0043195Y0039200D01*
X0041205Y0039200D01*
X0039368Y0038439D01*
X0037961Y0037032D01*
X0037200Y0035195D01*
X0037200Y0033205D01*
X0037961Y0031368D01*
X0039368Y0029961D01*
X0041205Y0029200D01*
X0043195Y0029200D01*
X0045032Y0029961D01*
X0046439Y0031368D01*
X0047200Y0033205D01*
X0047200Y0035195D01*
X0046439Y0037032D01*
X0045032Y0038439D01*
X0046874Y0035982D02*
X0048170Y0035982D01*
X0047800Y0034200D02*
X0047800Y0033854D01*
X0047908Y0033170D01*
X0048122Y0032511D01*
X0048437Y0031894D01*
X0048844Y0031334D01*
X0049334Y0030844D01*
X0049894Y0030437D01*
X0050511Y0030122D01*
X0051170Y0029908D01*
X0051854Y0029800D01*
X0052200Y0029800D01*
X0052546Y0029800D01*
X0053230Y0029908D01*
X0053889Y0030122D01*
X0054506Y0030437D01*
X0055066Y0030844D01*
X0055556Y0031334D01*
X0055963Y0031894D01*
X0056278Y0032511D01*
X0056492Y0033170D01*
X0056600Y0033854D01*
X0056600Y0034200D01*
X0052200Y0034200D01*
X0052200Y0029800D01*
X0052200Y0034200D01*
X0052200Y0034200D01*
X0047800Y0034200D01*
X0047843Y0033584D02*
X0047200Y0033584D01*
X0046256Y0031185D02*
X0048992Y0031185D01*
X0052200Y0031185D02*
X0052200Y0031185D01*
X0052200Y0033584D02*
X0052200Y0033584D01*
X0052200Y0035982D02*
X0052200Y0035982D01*
X0056230Y0035982D02*
X0120183Y0035982D01*
X0119616Y0033584D02*
X0056557Y0033584D01*
X0055408Y0031185D02*
X0120280Y0031185D01*
X0141677Y0023990D02*
X0143900Y0023990D01*
X0143900Y0026388D02*
X0010500Y0026388D01*
X0010500Y0023990D02*
X0012608Y0023990D01*
X0010500Y0033584D02*
X0027200Y0033584D01*
X0027526Y0035982D02*
X0010500Y0035982D01*
X0010500Y0038381D02*
X0029310Y0038381D01*
X0035090Y0038381D02*
X0039310Y0038381D01*
X0037526Y0035982D02*
X0036874Y0035982D01*
X0037200Y0033584D02*
X0037200Y0033584D01*
X0036256Y0031185D02*
X0038144Y0031185D01*
X0039143Y0048900D02*
X0065257Y0048900D01*
X0066286Y0049326D01*
X0067074Y0050114D01*
X0067500Y0051143D01*
X0067500Y0102257D01*
X0067074Y0103286D01*
X0066286Y0104074D01*
X0065257Y0104500D01*
X0039143Y0104500D01*
X0038114Y0104074D01*
X0037326Y0103286D01*
X0036900Y0102257D01*
X0036900Y0051143D01*
X0037326Y0050114D01*
X0038114Y0049326D01*
X0039143Y0048900D01*
X0037219Y0050373D02*
X0010500Y0050373D01*
X0010500Y0047975D02*
X0143900Y0047975D01*
X0143900Y0050373D02*
X0067181Y0050373D01*
X0067500Y0052772D02*
X0143900Y0052772D01*
X0143900Y0055170D02*
X0067500Y0055170D01*
X0067500Y0057569D02*
X0143900Y0057569D01*
X0143900Y0059967D02*
X0067500Y0059967D01*
X0067500Y0062366D02*
X0143900Y0062366D01*
X0143900Y0064764D02*
X0067500Y0064764D01*
X0067500Y0067163D02*
X0143900Y0067163D01*
X0143900Y0069561D02*
X0067500Y0069561D01*
X0067500Y0071960D02*
X0143900Y0071960D01*
X0143900Y0074358D02*
X0067500Y0074358D01*
X0067500Y0076757D02*
X0143900Y0076757D01*
X0143900Y0079155D02*
X0067500Y0079155D01*
X0067500Y0081554D02*
X0143900Y0081554D01*
X0143900Y0083952D02*
X0067500Y0083952D01*
X0067500Y0086351D02*
X0143900Y0086351D01*
X0143900Y0088749D02*
X0067500Y0088749D01*
X0067500Y0091148D02*
X0143900Y0091148D01*
X0143900Y0093546D02*
X0142764Y0093546D01*
X0131901Y0093546D02*
X0067500Y0093546D01*
X0067500Y0095945D02*
X0129985Y0095945D01*
X0129081Y0098343D02*
X0067500Y0098343D01*
X0067500Y0100742D02*
X0129081Y0100742D01*
X0129845Y0103140D02*
X0067134Y0103140D01*
X0037266Y0103140D02*
X0024736Y0103140D01*
X0024782Y0103076D02*
X0024782Y0103076D01*
X0025279Y0100742D02*
X0036900Y0100742D01*
X0036900Y0098343D02*
X0025212Y0098343D01*
X0024507Y0095945D02*
X0036900Y0095945D01*
X0036900Y0093546D02*
X0022764Y0093546D01*
X0011901Y0093546D02*
X0010500Y0093546D01*
X0010500Y0091148D02*
X0036900Y0091148D01*
X0036900Y0088749D02*
X0010500Y0088749D01*
X0010500Y0086351D02*
X0036900Y0086351D01*
X0036900Y0083952D02*
X0010500Y0083952D01*
X0010500Y0081554D02*
X0036900Y0081554D01*
X0036900Y0079155D02*
X0010500Y0079155D01*
X0010500Y0076757D02*
X0036900Y0076757D01*
X0036900Y0074358D02*
X0010500Y0074358D01*
X0010500Y0071960D02*
X0036900Y0071960D01*
X0036900Y0069561D02*
X0010500Y0069561D01*
X0010500Y0067163D02*
X0036900Y0067163D01*
X0036900Y0064764D02*
X0010500Y0064764D01*
X0010500Y0062366D02*
X0036900Y0062366D01*
X0036900Y0059967D02*
X0010500Y0059967D01*
X0010500Y0057569D02*
X0036900Y0057569D01*
X0036900Y0055170D02*
X0010500Y0055170D01*
X0010500Y0052772D02*
X0036900Y0052772D01*
X0010500Y0045576D02*
X0143900Y0045576D01*
X0143900Y0043178D02*
X0010500Y0043178D01*
X0010500Y0040779D02*
X0143900Y0040779D01*
X0131552Y0105539D02*
X0022993Y0105539D01*
D12*
X0032200Y0099700D03*
X0032200Y0094700D03*
X0027200Y0094700D03*
X0095200Y0063700D03*
X0095200Y0059700D03*
X0099200Y0059700D03*
X0099200Y0063700D03*
X0097200Y0039700D03*
X0092200Y0039700D03*
X0087200Y0039700D03*
X0112200Y0094700D03*
X0117200Y0094700D03*
X0112200Y0099700D03*
D13*
X0124200Y0033700D03*
X0139700Y0033700D03*
D14*
X0124200Y0033700D01*
M02*
