G75*
%MOIN*%
%OFA0B0*%
%FSLAX25Y25*%
%IPPOS*%
%LPD*%
%AMOC8*
5,1,8,0,0,1.08239X$1,22.5*
%
%ADD10C,0.00300*%
%ADD11C,0.00800*%
%ADD12R,0.03937X0.00787*%
%ADD13C,0.00700*%
%ADD14C,0.01000*%
%ADD15R,0.01181X0.06299*%
%ADD16C,0.00600*%
%ADD17C,0.00400*%
D10*
X0037350Y0018350D02*
X0039202Y0018350D01*
X0039819Y0018967D01*
X0039819Y0021436D01*
X0039202Y0022053D01*
X0037350Y0022053D01*
X0037350Y0018350D01*
X0041033Y0018350D02*
X0042268Y0018350D01*
X0041650Y0018350D02*
X0041650Y0022053D01*
X0041033Y0022053D02*
X0042268Y0022053D01*
X0043489Y0022053D02*
X0044723Y0020819D01*
X0045957Y0022053D01*
X0045957Y0018350D01*
X0043489Y0018350D02*
X0043489Y0022053D01*
X0054200Y0018604D02*
X0054200Y0014901D01*
X0056669Y0014901D01*
X0057884Y0014901D02*
X0060352Y0014901D01*
X0061567Y0014901D02*
X0063418Y0014901D01*
X0064035Y0015518D01*
X0064035Y0017987D01*
X0063418Y0018604D01*
X0061567Y0018604D01*
X0061567Y0014901D01*
X0059118Y0016753D02*
X0057884Y0016753D01*
X0057884Y0018604D02*
X0057884Y0014901D01*
X0057884Y0018604D02*
X0060352Y0018604D01*
X0065250Y0016753D02*
X0067719Y0016753D01*
X0087347Y0027350D02*
X0087347Y0029202D01*
X0087964Y0029819D01*
X0089198Y0029819D01*
X0089816Y0029202D01*
X0089816Y0027350D01*
X0091050Y0027350D02*
X0087347Y0027350D01*
X0089816Y0028584D02*
X0091050Y0029819D01*
X0091050Y0031033D02*
X0091050Y0033502D01*
X0091050Y0032268D02*
X0087347Y0032268D01*
X0088581Y0031033D01*
X0079439Y0033905D02*
X0076970Y0033905D01*
X0079439Y0036374D01*
X0079439Y0036991D01*
X0078822Y0037608D01*
X0077587Y0037608D01*
X0076970Y0036991D01*
X0075756Y0036991D02*
X0075139Y0037608D01*
X0073904Y0037608D01*
X0073287Y0036991D01*
X0073287Y0034522D01*
X0073904Y0033905D01*
X0075139Y0033905D01*
X0075756Y0034522D01*
X0093515Y0045531D02*
X0094750Y0045531D01*
X0094133Y0045531D02*
X0094133Y0049234D01*
X0094750Y0049234D02*
X0093515Y0049234D01*
X0095971Y0048617D02*
X0095971Y0046148D01*
X0096588Y0045531D01*
X0097822Y0045531D01*
X0098440Y0046148D01*
X0099654Y0045531D02*
X0102123Y0045531D01*
X0100888Y0045531D02*
X0100888Y0049234D01*
X0099654Y0048000D01*
X0098440Y0048617D02*
X0097822Y0049234D01*
X0096588Y0049234D01*
X0095971Y0048617D01*
X0126847Y0064350D02*
X0126847Y0066202D01*
X0127464Y0066819D01*
X0128698Y0066819D01*
X0129316Y0066202D01*
X0129316Y0064350D01*
X0130550Y0064350D02*
X0126847Y0064350D01*
X0129316Y0065584D02*
X0130550Y0066819D01*
X0129933Y0068033D02*
X0130550Y0068650D01*
X0130550Y0069885D01*
X0129933Y0070502D01*
X0129316Y0070502D01*
X0128698Y0069885D01*
X0128698Y0069268D01*
X0128698Y0069885D02*
X0128081Y0070502D01*
X0127464Y0070502D01*
X0126847Y0069885D01*
X0126847Y0068650D01*
X0127464Y0068033D01*
X0134299Y0068435D02*
X0135533Y0067200D01*
X0136768Y0068435D01*
X0136768Y0070904D01*
X0137982Y0070904D02*
X0139216Y0070904D01*
X0138599Y0070904D02*
X0138599Y0067200D01*
X0137982Y0067200D02*
X0139216Y0067200D01*
X0140437Y0067200D02*
X0140437Y0070904D01*
X0142906Y0067200D01*
X0142906Y0070904D01*
X0144121Y0069052D02*
X0146589Y0069052D01*
X0134299Y0068435D02*
X0134299Y0070904D01*
X0134299Y0046904D02*
X0134299Y0044435D01*
X0135533Y0043200D01*
X0136768Y0044435D01*
X0136768Y0046904D01*
X0137982Y0046904D02*
X0139216Y0046904D01*
X0138599Y0046904D02*
X0138599Y0043200D01*
X0137982Y0043200D02*
X0139216Y0043200D01*
X0140437Y0043200D02*
X0140437Y0046904D01*
X0142906Y0043200D01*
X0142906Y0046904D01*
X0144121Y0045052D02*
X0146589Y0045052D01*
X0145355Y0046286D02*
X0145355Y0043818D01*
X0102719Y0016253D02*
X0100250Y0016253D01*
X0099035Y0017487D02*
X0099035Y0015018D01*
X0098418Y0014401D01*
X0096567Y0014401D01*
X0096567Y0018104D01*
X0098418Y0018104D01*
X0099035Y0017487D01*
X0101484Y0017487D02*
X0101484Y0015018D01*
X0095352Y0014401D02*
X0092884Y0014401D01*
X0092884Y0018104D01*
X0095352Y0018104D01*
X0094118Y0016253D02*
X0092884Y0016253D01*
X0091669Y0014401D02*
X0089200Y0014401D01*
X0089200Y0018104D01*
X0094266Y0102248D02*
X0095501Y0102248D01*
X0096118Y0102865D01*
X0097332Y0102248D02*
X0099801Y0102248D01*
X0098567Y0102248D02*
X0098567Y0105951D01*
X0097332Y0104716D01*
X0096118Y0105334D02*
X0095501Y0105951D01*
X0094266Y0105951D01*
X0093649Y0105334D01*
X0093649Y0102865D01*
X0094266Y0102248D01*
D11*
X0077791Y0092448D02*
X0077791Y0088511D01*
X0077791Y0092448D02*
X0077788Y0092686D01*
X0077780Y0092924D01*
X0077765Y0093161D01*
X0077745Y0093398D01*
X0077719Y0093634D01*
X0077688Y0093870D01*
X0077651Y0094105D01*
X0077608Y0094339D01*
X0077559Y0094572D01*
X0077505Y0094804D01*
X0077445Y0095034D01*
X0077380Y0095263D01*
X0077309Y0095490D01*
X0077233Y0095715D01*
X0077151Y0095938D01*
X0077064Y0096160D01*
X0076972Y0096379D01*
X0076874Y0096596D01*
X0076772Y0096810D01*
X0076664Y0097022D01*
X0076550Y0097232D01*
X0076432Y0097438D01*
X0076309Y0097642D01*
X0076181Y0097842D01*
X0076049Y0098039D01*
X0075911Y0098234D01*
X0075769Y0098424D01*
X0075622Y0098612D01*
X0075471Y0098795D01*
X0075316Y0098975D01*
X0075156Y0099151D01*
X0074992Y0099323D01*
X0074823Y0099492D01*
X0074651Y0099656D01*
X0074475Y0099816D01*
X0074295Y0099971D01*
X0074112Y0100122D01*
X0073924Y0100269D01*
X0073734Y0100411D01*
X0073539Y0100549D01*
X0073342Y0100681D01*
X0073142Y0100809D01*
X0072938Y0100932D01*
X0072732Y0101050D01*
X0072522Y0101164D01*
X0072310Y0101272D01*
X0072096Y0101374D01*
X0071879Y0101472D01*
X0071660Y0101564D01*
X0071438Y0101651D01*
X0071215Y0101733D01*
X0070990Y0101809D01*
X0070763Y0101880D01*
X0070534Y0101945D01*
X0070304Y0102005D01*
X0070072Y0102059D01*
X0069839Y0102108D01*
X0069605Y0102151D01*
X0069370Y0102188D01*
X0069134Y0102219D01*
X0068898Y0102245D01*
X0068661Y0102265D01*
X0068424Y0102280D01*
X0068186Y0102288D01*
X0067948Y0102291D01*
X0036452Y0102291D01*
X0036214Y0102288D01*
X0035976Y0102280D01*
X0035739Y0102265D01*
X0035502Y0102245D01*
X0035266Y0102219D01*
X0035030Y0102188D01*
X0034795Y0102151D01*
X0034561Y0102108D01*
X0034328Y0102059D01*
X0034096Y0102005D01*
X0033866Y0101945D01*
X0033637Y0101880D01*
X0033410Y0101809D01*
X0033185Y0101733D01*
X0032962Y0101651D01*
X0032740Y0101564D01*
X0032521Y0101472D01*
X0032304Y0101374D01*
X0032090Y0101272D01*
X0031878Y0101164D01*
X0031668Y0101050D01*
X0031462Y0100932D01*
X0031258Y0100809D01*
X0031058Y0100681D01*
X0030861Y0100549D01*
X0030666Y0100411D01*
X0030476Y0100269D01*
X0030288Y0100122D01*
X0030105Y0099971D01*
X0029925Y0099816D01*
X0029749Y0099656D01*
X0029577Y0099492D01*
X0029408Y0099323D01*
X0029244Y0099151D01*
X0029084Y0098975D01*
X0028929Y0098795D01*
X0028778Y0098612D01*
X0028631Y0098424D01*
X0028489Y0098234D01*
X0028351Y0098039D01*
X0028219Y0097842D01*
X0028091Y0097642D01*
X0027968Y0097438D01*
X0027850Y0097232D01*
X0027736Y0097022D01*
X0027628Y0096810D01*
X0027526Y0096596D01*
X0027428Y0096379D01*
X0027336Y0096160D01*
X0027249Y0095938D01*
X0027167Y0095715D01*
X0027091Y0095490D01*
X0027020Y0095263D01*
X0026955Y0095034D01*
X0026895Y0094804D01*
X0026841Y0094572D01*
X0026792Y0094339D01*
X0026749Y0094105D01*
X0026712Y0093870D01*
X0026681Y0093634D01*
X0026655Y0093398D01*
X0026635Y0093161D01*
X0026620Y0092924D01*
X0026612Y0092686D01*
X0026609Y0092448D01*
X0026609Y0088511D01*
X0026609Y0064889D02*
X0026609Y0060952D01*
X0026612Y0060714D01*
X0026620Y0060476D01*
X0026635Y0060239D01*
X0026655Y0060002D01*
X0026681Y0059766D01*
X0026712Y0059530D01*
X0026749Y0059295D01*
X0026792Y0059061D01*
X0026841Y0058828D01*
X0026895Y0058596D01*
X0026955Y0058366D01*
X0027020Y0058137D01*
X0027091Y0057910D01*
X0027167Y0057685D01*
X0027249Y0057462D01*
X0027336Y0057240D01*
X0027428Y0057021D01*
X0027526Y0056804D01*
X0027628Y0056590D01*
X0027736Y0056378D01*
X0027850Y0056168D01*
X0027968Y0055962D01*
X0028091Y0055758D01*
X0028219Y0055558D01*
X0028351Y0055361D01*
X0028489Y0055166D01*
X0028631Y0054976D01*
X0028778Y0054788D01*
X0028929Y0054605D01*
X0029084Y0054425D01*
X0029244Y0054249D01*
X0029408Y0054077D01*
X0029577Y0053908D01*
X0029749Y0053744D01*
X0029925Y0053584D01*
X0030105Y0053429D01*
X0030288Y0053278D01*
X0030476Y0053131D01*
X0030666Y0052989D01*
X0030861Y0052851D01*
X0031058Y0052719D01*
X0031258Y0052591D01*
X0031462Y0052468D01*
X0031668Y0052350D01*
X0031878Y0052236D01*
X0032090Y0052128D01*
X0032304Y0052026D01*
X0032521Y0051928D01*
X0032740Y0051836D01*
X0032962Y0051749D01*
X0033185Y0051667D01*
X0033410Y0051591D01*
X0033637Y0051520D01*
X0033866Y0051455D01*
X0034096Y0051395D01*
X0034328Y0051341D01*
X0034561Y0051292D01*
X0034795Y0051249D01*
X0035030Y0051212D01*
X0035266Y0051181D01*
X0035502Y0051155D01*
X0035739Y0051135D01*
X0035976Y0051120D01*
X0036214Y0051112D01*
X0036452Y0051109D01*
X0067948Y0051109D01*
X0068186Y0051112D01*
X0068424Y0051120D01*
X0068661Y0051135D01*
X0068898Y0051155D01*
X0069134Y0051181D01*
X0069370Y0051212D01*
X0069605Y0051249D01*
X0069839Y0051292D01*
X0070072Y0051341D01*
X0070304Y0051395D01*
X0070534Y0051455D01*
X0070763Y0051520D01*
X0070990Y0051591D01*
X0071215Y0051667D01*
X0071438Y0051749D01*
X0071660Y0051836D01*
X0071879Y0051928D01*
X0072096Y0052026D01*
X0072310Y0052128D01*
X0072522Y0052236D01*
X0072732Y0052350D01*
X0072938Y0052468D01*
X0073142Y0052591D01*
X0073342Y0052719D01*
X0073539Y0052851D01*
X0073734Y0052989D01*
X0073924Y0053131D01*
X0074112Y0053278D01*
X0074295Y0053429D01*
X0074475Y0053584D01*
X0074651Y0053744D01*
X0074823Y0053908D01*
X0074992Y0054077D01*
X0075156Y0054249D01*
X0075316Y0054425D01*
X0075471Y0054605D01*
X0075622Y0054788D01*
X0075769Y0054976D01*
X0075911Y0055166D01*
X0076049Y0055361D01*
X0076181Y0055558D01*
X0076309Y0055758D01*
X0076432Y0055962D01*
X0076550Y0056168D01*
X0076664Y0056378D01*
X0076772Y0056590D01*
X0076874Y0056804D01*
X0076972Y0057021D01*
X0077064Y0057240D01*
X0077151Y0057462D01*
X0077233Y0057685D01*
X0077309Y0057910D01*
X0077380Y0058137D01*
X0077445Y0058366D01*
X0077505Y0058596D01*
X0077559Y0058828D01*
X0077608Y0059061D01*
X0077651Y0059295D01*
X0077688Y0059530D01*
X0077719Y0059766D01*
X0077745Y0060002D01*
X0077765Y0060239D01*
X0077780Y0060476D01*
X0077788Y0060714D01*
X0077791Y0060952D01*
X0077791Y0064889D01*
X0094838Y0076444D02*
X0094838Y0081956D01*
X0099169Y0079200D01*
X0094838Y0076444D01*
X0094838Y0076670D02*
X0095194Y0076670D01*
X0094838Y0077469D02*
X0096448Y0077469D01*
X0097703Y0078268D02*
X0094838Y0078268D01*
X0094838Y0079066D02*
X0098958Y0079066D01*
X0098124Y0079865D02*
X0094838Y0079865D01*
X0094838Y0080663D02*
X0096869Y0080663D01*
X0095615Y0081462D02*
X0094838Y0081462D01*
X0104050Y0036637D02*
X0104050Y0029763D01*
X0105625Y0032019D02*
X0107200Y0034381D01*
X0108775Y0032019D01*
X0105625Y0032019D01*
X0106413Y0032413D02*
X0107200Y0033594D01*
X0107987Y0032413D01*
X0106413Y0032413D01*
X0106639Y0032752D02*
X0107761Y0032752D01*
X0107229Y0033551D02*
X0107171Y0033551D01*
X0110350Y0036637D02*
X0110350Y0029763D01*
D12*
X0107200Y0034775D03*
D13*
X0106752Y0045550D02*
X0104550Y0045550D01*
X0104550Y0046100D01*
X0106752Y0048302D01*
X0106752Y0048853D01*
X0104550Y0048853D01*
X0108233Y0047752D02*
X0109334Y0048853D01*
X0109334Y0045550D01*
X0108233Y0045550D02*
X0110435Y0045550D01*
X0111550Y0087300D02*
X0113201Y0087300D01*
X0113752Y0087850D01*
X0113752Y0090052D01*
X0113201Y0090603D01*
X0111550Y0090603D01*
X0111550Y0087300D01*
X0115233Y0087300D02*
X0117435Y0087300D01*
X0116334Y0087300D02*
X0116334Y0090603D01*
X0115233Y0089502D01*
X0083435Y0102550D02*
X0081233Y0102550D01*
X0082334Y0102550D02*
X0082334Y0105853D01*
X0081233Y0104752D01*
X0079752Y0102550D02*
X0077550Y0102550D01*
X0077550Y0105853D01*
D14*
X0023893Y0043058D02*
X0023893Y0025342D01*
X0060507Y0025342D01*
X0060507Y0043058D01*
X0023893Y0043058D01*
X0088145Y0074869D02*
X0106255Y0074869D01*
X0099169Y0079200D02*
X0094838Y0081956D01*
X0094838Y0076444D01*
X0099169Y0079200D01*
X0106255Y0083531D02*
X0088145Y0083531D01*
D15*
X0099759Y0079200D03*
D16*
X0101040Y0070646D02*
X0090360Y0070646D01*
X0090328Y0065387D02*
X0090328Y0063974D01*
X0090328Y0059481D02*
X0090328Y0058069D01*
X0090360Y0052754D02*
X0101040Y0052754D01*
X0101040Y0056725D01*
X0101040Y0066478D02*
X0101040Y0070646D01*
X0113600Y0039200D02*
X0113600Y0036200D01*
X0125000Y0036200D01*
X0125000Y0039200D01*
X0113600Y0039200D01*
X0027826Y0034200D02*
X0027828Y0034332D01*
X0027834Y0034463D01*
X0027844Y0034594D01*
X0027858Y0034725D01*
X0027876Y0034855D01*
X0027898Y0034985D01*
X0027923Y0035114D01*
X0027953Y0035242D01*
X0027987Y0035370D01*
X0028024Y0035496D01*
X0028065Y0035621D01*
X0028110Y0035744D01*
X0028159Y0035867D01*
X0028212Y0035987D01*
X0028268Y0036106D01*
X0028327Y0036224D01*
X0028390Y0036339D01*
X0028457Y0036452D01*
X0028527Y0036564D01*
X0028601Y0036673D01*
X0028677Y0036780D01*
X0028757Y0036884D01*
X0028840Y0036986D01*
X0028926Y0037086D01*
X0029015Y0037183D01*
X0029107Y0037277D01*
X0029202Y0037368D01*
X0029300Y0037457D01*
X0029400Y0037542D01*
X0029502Y0037624D01*
X0029608Y0037703D01*
X0029715Y0037779D01*
X0029825Y0037852D01*
X0029937Y0037921D01*
X0030051Y0037987D01*
X0030167Y0038049D01*
X0030284Y0038108D01*
X0030404Y0038163D01*
X0030525Y0038214D01*
X0030647Y0038262D01*
X0030771Y0038306D01*
X0030897Y0038347D01*
X0031023Y0038383D01*
X0031151Y0038416D01*
X0031279Y0038444D01*
X0031408Y0038469D01*
X0031538Y0038490D01*
X0031669Y0038507D01*
X0031800Y0038520D01*
X0031931Y0038529D01*
X0032062Y0038534D01*
X0032194Y0038535D01*
X0032325Y0038532D01*
X0032457Y0038525D01*
X0032588Y0038514D01*
X0032719Y0038499D01*
X0032849Y0038480D01*
X0032978Y0038457D01*
X0033107Y0038430D01*
X0033235Y0038400D01*
X0033362Y0038365D01*
X0033488Y0038327D01*
X0033613Y0038285D01*
X0033736Y0038239D01*
X0033858Y0038189D01*
X0033978Y0038136D01*
X0034097Y0038079D01*
X0034214Y0038018D01*
X0034328Y0037954D01*
X0034441Y0037887D01*
X0034552Y0037816D01*
X0034661Y0037742D01*
X0034767Y0037664D01*
X0034871Y0037583D01*
X0034973Y0037500D01*
X0035071Y0037413D01*
X0035168Y0037323D01*
X0035261Y0037230D01*
X0035352Y0037135D01*
X0035439Y0037037D01*
X0035524Y0036936D01*
X0035605Y0036832D01*
X0035683Y0036727D01*
X0035759Y0036619D01*
X0035830Y0036508D01*
X0035899Y0036396D01*
X0035964Y0036281D01*
X0036025Y0036165D01*
X0036083Y0036047D01*
X0036137Y0035927D01*
X0036188Y0035806D01*
X0036235Y0035683D01*
X0036278Y0035558D01*
X0036317Y0035433D01*
X0036353Y0035306D01*
X0036384Y0035178D01*
X0036412Y0035050D01*
X0036436Y0034920D01*
X0036456Y0034790D01*
X0036472Y0034660D01*
X0036484Y0034529D01*
X0036492Y0034397D01*
X0036496Y0034266D01*
X0036496Y0034134D01*
X0036492Y0034003D01*
X0036484Y0033871D01*
X0036472Y0033740D01*
X0036456Y0033610D01*
X0036436Y0033480D01*
X0036412Y0033350D01*
X0036384Y0033222D01*
X0036353Y0033094D01*
X0036317Y0032967D01*
X0036278Y0032842D01*
X0036235Y0032717D01*
X0036188Y0032594D01*
X0036137Y0032473D01*
X0036083Y0032353D01*
X0036025Y0032235D01*
X0035964Y0032119D01*
X0035899Y0032004D01*
X0035830Y0031892D01*
X0035759Y0031781D01*
X0035683Y0031673D01*
X0035605Y0031568D01*
X0035524Y0031464D01*
X0035439Y0031363D01*
X0035352Y0031265D01*
X0035261Y0031170D01*
X0035168Y0031077D01*
X0035071Y0030987D01*
X0034973Y0030900D01*
X0034871Y0030817D01*
X0034767Y0030736D01*
X0034661Y0030658D01*
X0034552Y0030584D01*
X0034441Y0030513D01*
X0034329Y0030446D01*
X0034214Y0030382D01*
X0034097Y0030321D01*
X0033978Y0030264D01*
X0033858Y0030211D01*
X0033736Y0030161D01*
X0033613Y0030115D01*
X0033488Y0030073D01*
X0033362Y0030035D01*
X0033235Y0030000D01*
X0033107Y0029970D01*
X0032978Y0029943D01*
X0032849Y0029920D01*
X0032719Y0029901D01*
X0032588Y0029886D01*
X0032457Y0029875D01*
X0032325Y0029868D01*
X0032194Y0029865D01*
X0032062Y0029866D01*
X0031931Y0029871D01*
X0031800Y0029880D01*
X0031669Y0029893D01*
X0031538Y0029910D01*
X0031408Y0029931D01*
X0031279Y0029956D01*
X0031151Y0029984D01*
X0031023Y0030017D01*
X0030897Y0030053D01*
X0030771Y0030094D01*
X0030647Y0030138D01*
X0030525Y0030186D01*
X0030404Y0030237D01*
X0030284Y0030292D01*
X0030167Y0030351D01*
X0030051Y0030413D01*
X0029937Y0030479D01*
X0029825Y0030548D01*
X0029715Y0030621D01*
X0029608Y0030697D01*
X0029502Y0030776D01*
X0029400Y0030858D01*
X0029300Y0030943D01*
X0029202Y0031032D01*
X0029107Y0031123D01*
X0029015Y0031217D01*
X0028926Y0031314D01*
X0028840Y0031414D01*
X0028757Y0031516D01*
X0028677Y0031620D01*
X0028601Y0031727D01*
X0028527Y0031836D01*
X0028457Y0031948D01*
X0028390Y0032061D01*
X0028327Y0032176D01*
X0028268Y0032294D01*
X0028212Y0032413D01*
X0028159Y0032533D01*
X0028110Y0032656D01*
X0028065Y0032779D01*
X0028024Y0032904D01*
X0027987Y0033030D01*
X0027953Y0033158D01*
X0027923Y0033286D01*
X0027898Y0033415D01*
X0027876Y0033545D01*
X0027858Y0033675D01*
X0027844Y0033806D01*
X0027834Y0033937D01*
X0027828Y0034068D01*
X0027826Y0034200D01*
D17*
X0115900Y0027903D02*
X0115900Y0025501D01*
X0116501Y0024900D01*
X0117702Y0024900D01*
X0118302Y0025501D01*
X0118302Y0027903D01*
X0117702Y0028503D01*
X0116501Y0028503D01*
X0115900Y0027903D01*
X0117101Y0026101D02*
X0118302Y0024900D01*
X0119583Y0024900D02*
X0121985Y0024900D01*
X0120784Y0024900D02*
X0120784Y0028503D01*
X0119583Y0027302D01*
M02*
