G75*
%MOIN*%
%OFA0B0*%
%FSLAX25Y25*%
%IPPOS*%
%LPD*%
%AMOC8*
5,1,8,0,0,1.08239X$1,22.5*
%
%ADD10C,0.01000*%
D10*
X0014271Y0007200D02*
X0140129Y0007200D01*
X0140300Y0007202D01*
X0140471Y0007208D01*
X0140641Y0007219D01*
X0140811Y0007233D01*
X0140981Y0007252D01*
X0141151Y0007274D01*
X0141319Y0007301D01*
X0141488Y0007332D01*
X0141655Y0007367D01*
X0141821Y0007405D01*
X0141987Y0007448D01*
X0142151Y0007495D01*
X0142314Y0007546D01*
X0142476Y0007601D01*
X0142636Y0007660D01*
X0142795Y0007722D01*
X0142953Y0007788D01*
X0143109Y0007858D01*
X0143263Y0007932D01*
X0143415Y0008010D01*
X0143565Y0008091D01*
X0143714Y0008176D01*
X0143860Y0008264D01*
X0144004Y0008356D01*
X0144146Y0008452D01*
X0144285Y0008550D01*
X0144422Y0008653D01*
X0144557Y0008758D01*
X0144689Y0008867D01*
X0144818Y0008978D01*
X0144944Y0009093D01*
X0145068Y0009211D01*
X0145189Y0009332D01*
X0145307Y0009456D01*
X0145422Y0009582D01*
X0145533Y0009711D01*
X0145642Y0009843D01*
X0145747Y0009978D01*
X0145850Y0010115D01*
X0145948Y0010254D01*
X0146044Y0010396D01*
X0146136Y0010540D01*
X0146224Y0010686D01*
X0146309Y0010835D01*
X0146390Y0010985D01*
X0146468Y0011137D01*
X0146542Y0011291D01*
X0146612Y0011447D01*
X0146678Y0011605D01*
X0146740Y0011764D01*
X0146799Y0011924D01*
X0146854Y0012086D01*
X0146905Y0012249D01*
X0146952Y0012413D01*
X0146995Y0012579D01*
X0147033Y0012745D01*
X0147068Y0012912D01*
X0147099Y0013081D01*
X0147126Y0013249D01*
X0147148Y0013419D01*
X0147167Y0013589D01*
X0147181Y0013759D01*
X0147192Y0013929D01*
X0147198Y0014100D01*
X0147200Y0014271D01*
X0147200Y0104110D01*
X0147198Y0104259D01*
X0147192Y0104408D01*
X0147182Y0104556D01*
X0147168Y0104704D01*
X0147151Y0104852D01*
X0147129Y0104999D01*
X0147103Y0105146D01*
X0147074Y0105292D01*
X0147040Y0105437D01*
X0147003Y0105581D01*
X0146962Y0105724D01*
X0146917Y0105866D01*
X0146869Y0106006D01*
X0146816Y0106146D01*
X0146760Y0106284D01*
X0146700Y0106420D01*
X0146637Y0106555D01*
X0146570Y0106688D01*
X0146500Y0106819D01*
X0146426Y0106948D01*
X0146349Y0107075D01*
X0146268Y0107200D01*
X0146184Y0107323D01*
X0146097Y0107444D01*
X0146007Y0107562D01*
X0145913Y0107678D01*
X0145817Y0107791D01*
X0145717Y0107902D01*
X0145615Y0108010D01*
X0145510Y0108115D01*
X0145402Y0108217D01*
X0145291Y0108317D01*
X0145178Y0108413D01*
X0145062Y0108507D01*
X0144944Y0108597D01*
X0144823Y0108684D01*
X0144700Y0108768D01*
X0144575Y0108849D01*
X0144448Y0108926D01*
X0144319Y0109000D01*
X0144188Y0109070D01*
X0144055Y0109137D01*
X0143920Y0109200D01*
X0143784Y0109260D01*
X0143646Y0109316D01*
X0143506Y0109369D01*
X0143366Y0109417D01*
X0143224Y0109462D01*
X0143081Y0109503D01*
X0142937Y0109540D01*
X0142792Y0109574D01*
X0142646Y0109603D01*
X0142499Y0109629D01*
X0142352Y0109651D01*
X0142204Y0109668D01*
X0142056Y0109682D01*
X0141908Y0109692D01*
X0141759Y0109698D01*
X0141610Y0109700D01*
X0012790Y0109700D01*
X0012641Y0109698D01*
X0012492Y0109692D01*
X0012344Y0109682D01*
X0012196Y0109668D01*
X0012048Y0109651D01*
X0011901Y0109629D01*
X0011754Y0109603D01*
X0011608Y0109574D01*
X0011463Y0109540D01*
X0011319Y0109503D01*
X0011176Y0109462D01*
X0011034Y0109417D01*
X0010894Y0109369D01*
X0010754Y0109316D01*
X0010616Y0109260D01*
X0010480Y0109200D01*
X0010345Y0109137D01*
X0010212Y0109070D01*
X0010081Y0109000D01*
X0009952Y0108926D01*
X0009825Y0108849D01*
X0009700Y0108768D01*
X0009577Y0108684D01*
X0009456Y0108597D01*
X0009338Y0108507D01*
X0009222Y0108413D01*
X0009109Y0108317D01*
X0008998Y0108217D01*
X0008890Y0108115D01*
X0008785Y0108010D01*
X0008683Y0107902D01*
X0008583Y0107791D01*
X0008487Y0107678D01*
X0008393Y0107562D01*
X0008303Y0107444D01*
X0008216Y0107323D01*
X0008132Y0107200D01*
X0008051Y0107075D01*
X0007974Y0106948D01*
X0007900Y0106819D01*
X0007830Y0106688D01*
X0007763Y0106555D01*
X0007700Y0106420D01*
X0007640Y0106284D01*
X0007584Y0106146D01*
X0007531Y0106006D01*
X0007483Y0105866D01*
X0007438Y0105724D01*
X0007397Y0105581D01*
X0007360Y0105437D01*
X0007326Y0105292D01*
X0007297Y0105146D01*
X0007271Y0104999D01*
X0007249Y0104852D01*
X0007232Y0104704D01*
X0007218Y0104556D01*
X0007208Y0104408D01*
X0007202Y0104259D01*
X0007200Y0104110D01*
X0007200Y0014271D01*
X0007202Y0014100D01*
X0007208Y0013929D01*
X0007219Y0013759D01*
X0007233Y0013589D01*
X0007252Y0013419D01*
X0007274Y0013249D01*
X0007301Y0013081D01*
X0007332Y0012912D01*
X0007367Y0012745D01*
X0007405Y0012579D01*
X0007448Y0012413D01*
X0007495Y0012249D01*
X0007546Y0012086D01*
X0007601Y0011924D01*
X0007660Y0011764D01*
X0007722Y0011605D01*
X0007788Y0011447D01*
X0007858Y0011291D01*
X0007932Y0011137D01*
X0008010Y0010985D01*
X0008091Y0010835D01*
X0008176Y0010686D01*
X0008264Y0010540D01*
X0008356Y0010396D01*
X0008452Y0010254D01*
X0008550Y0010115D01*
X0008653Y0009978D01*
X0008758Y0009843D01*
X0008867Y0009711D01*
X0008978Y0009582D01*
X0009093Y0009456D01*
X0009211Y0009332D01*
X0009332Y0009211D01*
X0009456Y0009093D01*
X0009582Y0008978D01*
X0009711Y0008867D01*
X0009843Y0008758D01*
X0009978Y0008653D01*
X0010115Y0008550D01*
X0010254Y0008452D01*
X0010396Y0008356D01*
X0010540Y0008264D01*
X0010686Y0008176D01*
X0010835Y0008091D01*
X0010985Y0008010D01*
X0011137Y0007932D01*
X0011291Y0007858D01*
X0011447Y0007788D01*
X0011605Y0007722D01*
X0011764Y0007660D01*
X0011924Y0007601D01*
X0012086Y0007546D01*
X0012249Y0007495D01*
X0012413Y0007448D01*
X0012579Y0007405D01*
X0012745Y0007367D01*
X0012912Y0007332D01*
X0013081Y0007301D01*
X0013249Y0007274D01*
X0013419Y0007252D01*
X0013589Y0007233D01*
X0013759Y0007219D01*
X0013929Y0007208D01*
X0014100Y0007202D01*
X0014271Y0007200D01*
X0012200Y0017200D02*
X0012202Y0017341D01*
X0012208Y0017482D01*
X0012218Y0017622D01*
X0012232Y0017762D01*
X0012250Y0017902D01*
X0012271Y0018041D01*
X0012297Y0018180D01*
X0012326Y0018318D01*
X0012360Y0018454D01*
X0012397Y0018590D01*
X0012438Y0018725D01*
X0012483Y0018859D01*
X0012532Y0018991D01*
X0012584Y0019122D01*
X0012640Y0019251D01*
X0012700Y0019378D01*
X0012763Y0019504D01*
X0012829Y0019628D01*
X0012900Y0019751D01*
X0012973Y0019871D01*
X0013050Y0019989D01*
X0013130Y0020105D01*
X0013214Y0020218D01*
X0013300Y0020329D01*
X0013390Y0020438D01*
X0013483Y0020544D01*
X0013578Y0020647D01*
X0013677Y0020748D01*
X0013778Y0020846D01*
X0013882Y0020941D01*
X0013989Y0021033D01*
X0014098Y0021122D01*
X0014210Y0021207D01*
X0014324Y0021290D01*
X0014440Y0021370D01*
X0014559Y0021446D01*
X0014680Y0021518D01*
X0014802Y0021588D01*
X0014927Y0021653D01*
X0015053Y0021716D01*
X0015181Y0021774D01*
X0015311Y0021829D01*
X0015442Y0021881D01*
X0015575Y0021928D01*
X0015709Y0021972D01*
X0015844Y0022013D01*
X0015980Y0022049D01*
X0016117Y0022081D01*
X0016255Y0022110D01*
X0016393Y0022135D01*
X0016533Y0022155D01*
X0016673Y0022172D01*
X0016813Y0022185D01*
X0016954Y0022194D01*
X0017094Y0022199D01*
X0017235Y0022200D01*
X0017376Y0022197D01*
X0017517Y0022190D01*
X0017657Y0022179D01*
X0017797Y0022164D01*
X0017937Y0022145D01*
X0018076Y0022123D01*
X0018214Y0022096D01*
X0018352Y0022066D01*
X0018488Y0022031D01*
X0018624Y0021993D01*
X0018758Y0021951D01*
X0018892Y0021905D01*
X0019024Y0021856D01*
X0019154Y0021802D01*
X0019283Y0021745D01*
X0019410Y0021685D01*
X0019536Y0021621D01*
X0019659Y0021553D01*
X0019781Y0021482D01*
X0019901Y0021408D01*
X0020018Y0021330D01*
X0020133Y0021249D01*
X0020246Y0021165D01*
X0020357Y0021078D01*
X0020465Y0020987D01*
X0020570Y0020894D01*
X0020673Y0020797D01*
X0020773Y0020698D01*
X0020870Y0020596D01*
X0020964Y0020491D01*
X0021055Y0020384D01*
X0021143Y0020274D01*
X0021228Y0020162D01*
X0021310Y0020047D01*
X0021389Y0019930D01*
X0021464Y0019811D01*
X0021536Y0019690D01*
X0021604Y0019567D01*
X0021669Y0019442D01*
X0021731Y0019315D01*
X0021788Y0019186D01*
X0021843Y0019056D01*
X0021893Y0018925D01*
X0021940Y0018792D01*
X0021983Y0018658D01*
X0022022Y0018522D01*
X0022057Y0018386D01*
X0022089Y0018249D01*
X0022116Y0018111D01*
X0022140Y0017972D01*
X0022160Y0017832D01*
X0022176Y0017692D01*
X0022188Y0017552D01*
X0022196Y0017411D01*
X0022200Y0017270D01*
X0022200Y0017130D01*
X0022196Y0016989D01*
X0022188Y0016848D01*
X0022176Y0016708D01*
X0022160Y0016568D01*
X0022140Y0016428D01*
X0022116Y0016289D01*
X0022089Y0016151D01*
X0022057Y0016014D01*
X0022022Y0015878D01*
X0021983Y0015742D01*
X0021940Y0015608D01*
X0021893Y0015475D01*
X0021843Y0015344D01*
X0021788Y0015214D01*
X0021731Y0015085D01*
X0021669Y0014958D01*
X0021604Y0014833D01*
X0021536Y0014710D01*
X0021464Y0014589D01*
X0021389Y0014470D01*
X0021310Y0014353D01*
X0021228Y0014238D01*
X0021143Y0014126D01*
X0021055Y0014016D01*
X0020964Y0013909D01*
X0020870Y0013804D01*
X0020773Y0013702D01*
X0020673Y0013603D01*
X0020570Y0013506D01*
X0020465Y0013413D01*
X0020357Y0013322D01*
X0020246Y0013235D01*
X0020133Y0013151D01*
X0020018Y0013070D01*
X0019901Y0012992D01*
X0019781Y0012918D01*
X0019659Y0012847D01*
X0019536Y0012779D01*
X0019410Y0012715D01*
X0019283Y0012655D01*
X0019154Y0012598D01*
X0019024Y0012544D01*
X0018892Y0012495D01*
X0018758Y0012449D01*
X0018624Y0012407D01*
X0018488Y0012369D01*
X0018352Y0012334D01*
X0018214Y0012304D01*
X0018076Y0012277D01*
X0017937Y0012255D01*
X0017797Y0012236D01*
X0017657Y0012221D01*
X0017517Y0012210D01*
X0017376Y0012203D01*
X0017235Y0012200D01*
X0017094Y0012201D01*
X0016954Y0012206D01*
X0016813Y0012215D01*
X0016673Y0012228D01*
X0016533Y0012245D01*
X0016393Y0012265D01*
X0016255Y0012290D01*
X0016117Y0012319D01*
X0015980Y0012351D01*
X0015844Y0012387D01*
X0015709Y0012428D01*
X0015575Y0012472D01*
X0015442Y0012519D01*
X0015311Y0012571D01*
X0015181Y0012626D01*
X0015053Y0012684D01*
X0014927Y0012747D01*
X0014802Y0012812D01*
X0014680Y0012882D01*
X0014559Y0012954D01*
X0014440Y0013030D01*
X0014324Y0013110D01*
X0014210Y0013193D01*
X0014098Y0013278D01*
X0013989Y0013367D01*
X0013882Y0013459D01*
X0013778Y0013554D01*
X0013677Y0013652D01*
X0013578Y0013753D01*
X0013483Y0013856D01*
X0013390Y0013962D01*
X0013300Y0014071D01*
X0013214Y0014182D01*
X0013130Y0014295D01*
X0013050Y0014411D01*
X0012973Y0014529D01*
X0012900Y0014649D01*
X0012829Y0014772D01*
X0012763Y0014896D01*
X0012700Y0015022D01*
X0012640Y0015149D01*
X0012584Y0015278D01*
X0012532Y0015409D01*
X0012483Y0015541D01*
X0012438Y0015675D01*
X0012397Y0015810D01*
X0012360Y0015946D01*
X0012326Y0016082D01*
X0012297Y0016220D01*
X0012271Y0016359D01*
X0012250Y0016498D01*
X0012232Y0016638D01*
X0012218Y0016778D01*
X0012208Y0016918D01*
X0012202Y0017059D01*
X0012200Y0017200D01*
X0012200Y0099700D02*
X0012202Y0099841D01*
X0012208Y0099982D01*
X0012218Y0100122D01*
X0012232Y0100262D01*
X0012250Y0100402D01*
X0012271Y0100541D01*
X0012297Y0100680D01*
X0012326Y0100818D01*
X0012360Y0100954D01*
X0012397Y0101090D01*
X0012438Y0101225D01*
X0012483Y0101359D01*
X0012532Y0101491D01*
X0012584Y0101622D01*
X0012640Y0101751D01*
X0012700Y0101878D01*
X0012763Y0102004D01*
X0012829Y0102128D01*
X0012900Y0102251D01*
X0012973Y0102371D01*
X0013050Y0102489D01*
X0013130Y0102605D01*
X0013214Y0102718D01*
X0013300Y0102829D01*
X0013390Y0102938D01*
X0013483Y0103044D01*
X0013578Y0103147D01*
X0013677Y0103248D01*
X0013778Y0103346D01*
X0013882Y0103441D01*
X0013989Y0103533D01*
X0014098Y0103622D01*
X0014210Y0103707D01*
X0014324Y0103790D01*
X0014440Y0103870D01*
X0014559Y0103946D01*
X0014680Y0104018D01*
X0014802Y0104088D01*
X0014927Y0104153D01*
X0015053Y0104216D01*
X0015181Y0104274D01*
X0015311Y0104329D01*
X0015442Y0104381D01*
X0015575Y0104428D01*
X0015709Y0104472D01*
X0015844Y0104513D01*
X0015980Y0104549D01*
X0016117Y0104581D01*
X0016255Y0104610D01*
X0016393Y0104635D01*
X0016533Y0104655D01*
X0016673Y0104672D01*
X0016813Y0104685D01*
X0016954Y0104694D01*
X0017094Y0104699D01*
X0017235Y0104700D01*
X0017376Y0104697D01*
X0017517Y0104690D01*
X0017657Y0104679D01*
X0017797Y0104664D01*
X0017937Y0104645D01*
X0018076Y0104623D01*
X0018214Y0104596D01*
X0018352Y0104566D01*
X0018488Y0104531D01*
X0018624Y0104493D01*
X0018758Y0104451D01*
X0018892Y0104405D01*
X0019024Y0104356D01*
X0019154Y0104302D01*
X0019283Y0104245D01*
X0019410Y0104185D01*
X0019536Y0104121D01*
X0019659Y0104053D01*
X0019781Y0103982D01*
X0019901Y0103908D01*
X0020018Y0103830D01*
X0020133Y0103749D01*
X0020246Y0103665D01*
X0020357Y0103578D01*
X0020465Y0103487D01*
X0020570Y0103394D01*
X0020673Y0103297D01*
X0020773Y0103198D01*
X0020870Y0103096D01*
X0020964Y0102991D01*
X0021055Y0102884D01*
X0021143Y0102774D01*
X0021228Y0102662D01*
X0021310Y0102547D01*
X0021389Y0102430D01*
X0021464Y0102311D01*
X0021536Y0102190D01*
X0021604Y0102067D01*
X0021669Y0101942D01*
X0021731Y0101815D01*
X0021788Y0101686D01*
X0021843Y0101556D01*
X0021893Y0101425D01*
X0021940Y0101292D01*
X0021983Y0101158D01*
X0022022Y0101022D01*
X0022057Y0100886D01*
X0022089Y0100749D01*
X0022116Y0100611D01*
X0022140Y0100472D01*
X0022160Y0100332D01*
X0022176Y0100192D01*
X0022188Y0100052D01*
X0022196Y0099911D01*
X0022200Y0099770D01*
X0022200Y0099630D01*
X0022196Y0099489D01*
X0022188Y0099348D01*
X0022176Y0099208D01*
X0022160Y0099068D01*
X0022140Y0098928D01*
X0022116Y0098789D01*
X0022089Y0098651D01*
X0022057Y0098514D01*
X0022022Y0098378D01*
X0021983Y0098242D01*
X0021940Y0098108D01*
X0021893Y0097975D01*
X0021843Y0097844D01*
X0021788Y0097714D01*
X0021731Y0097585D01*
X0021669Y0097458D01*
X0021604Y0097333D01*
X0021536Y0097210D01*
X0021464Y0097089D01*
X0021389Y0096970D01*
X0021310Y0096853D01*
X0021228Y0096738D01*
X0021143Y0096626D01*
X0021055Y0096516D01*
X0020964Y0096409D01*
X0020870Y0096304D01*
X0020773Y0096202D01*
X0020673Y0096103D01*
X0020570Y0096006D01*
X0020465Y0095913D01*
X0020357Y0095822D01*
X0020246Y0095735D01*
X0020133Y0095651D01*
X0020018Y0095570D01*
X0019901Y0095492D01*
X0019781Y0095418D01*
X0019659Y0095347D01*
X0019536Y0095279D01*
X0019410Y0095215D01*
X0019283Y0095155D01*
X0019154Y0095098D01*
X0019024Y0095044D01*
X0018892Y0094995D01*
X0018758Y0094949D01*
X0018624Y0094907D01*
X0018488Y0094869D01*
X0018352Y0094834D01*
X0018214Y0094804D01*
X0018076Y0094777D01*
X0017937Y0094755D01*
X0017797Y0094736D01*
X0017657Y0094721D01*
X0017517Y0094710D01*
X0017376Y0094703D01*
X0017235Y0094700D01*
X0017094Y0094701D01*
X0016954Y0094706D01*
X0016813Y0094715D01*
X0016673Y0094728D01*
X0016533Y0094745D01*
X0016393Y0094765D01*
X0016255Y0094790D01*
X0016117Y0094819D01*
X0015980Y0094851D01*
X0015844Y0094887D01*
X0015709Y0094928D01*
X0015575Y0094972D01*
X0015442Y0095019D01*
X0015311Y0095071D01*
X0015181Y0095126D01*
X0015053Y0095184D01*
X0014927Y0095247D01*
X0014802Y0095312D01*
X0014680Y0095382D01*
X0014559Y0095454D01*
X0014440Y0095530D01*
X0014324Y0095610D01*
X0014210Y0095693D01*
X0014098Y0095778D01*
X0013989Y0095867D01*
X0013882Y0095959D01*
X0013778Y0096054D01*
X0013677Y0096152D01*
X0013578Y0096253D01*
X0013483Y0096356D01*
X0013390Y0096462D01*
X0013300Y0096571D01*
X0013214Y0096682D01*
X0013130Y0096795D01*
X0013050Y0096911D01*
X0012973Y0097029D01*
X0012900Y0097149D01*
X0012829Y0097272D01*
X0012763Y0097396D01*
X0012700Y0097522D01*
X0012640Y0097649D01*
X0012584Y0097778D01*
X0012532Y0097909D01*
X0012483Y0098041D01*
X0012438Y0098175D01*
X0012397Y0098310D01*
X0012360Y0098446D01*
X0012326Y0098582D01*
X0012297Y0098720D01*
X0012271Y0098859D01*
X0012250Y0098998D01*
X0012232Y0099138D01*
X0012218Y0099278D01*
X0012208Y0099418D01*
X0012202Y0099559D01*
X0012200Y0099700D01*
X0132200Y0099700D02*
X0132202Y0099841D01*
X0132208Y0099982D01*
X0132218Y0100122D01*
X0132232Y0100262D01*
X0132250Y0100402D01*
X0132271Y0100541D01*
X0132297Y0100680D01*
X0132326Y0100818D01*
X0132360Y0100954D01*
X0132397Y0101090D01*
X0132438Y0101225D01*
X0132483Y0101359D01*
X0132532Y0101491D01*
X0132584Y0101622D01*
X0132640Y0101751D01*
X0132700Y0101878D01*
X0132763Y0102004D01*
X0132829Y0102128D01*
X0132900Y0102251D01*
X0132973Y0102371D01*
X0133050Y0102489D01*
X0133130Y0102605D01*
X0133214Y0102718D01*
X0133300Y0102829D01*
X0133390Y0102938D01*
X0133483Y0103044D01*
X0133578Y0103147D01*
X0133677Y0103248D01*
X0133778Y0103346D01*
X0133882Y0103441D01*
X0133989Y0103533D01*
X0134098Y0103622D01*
X0134210Y0103707D01*
X0134324Y0103790D01*
X0134440Y0103870D01*
X0134559Y0103946D01*
X0134680Y0104018D01*
X0134802Y0104088D01*
X0134927Y0104153D01*
X0135053Y0104216D01*
X0135181Y0104274D01*
X0135311Y0104329D01*
X0135442Y0104381D01*
X0135575Y0104428D01*
X0135709Y0104472D01*
X0135844Y0104513D01*
X0135980Y0104549D01*
X0136117Y0104581D01*
X0136255Y0104610D01*
X0136393Y0104635D01*
X0136533Y0104655D01*
X0136673Y0104672D01*
X0136813Y0104685D01*
X0136954Y0104694D01*
X0137094Y0104699D01*
X0137235Y0104700D01*
X0137376Y0104697D01*
X0137517Y0104690D01*
X0137657Y0104679D01*
X0137797Y0104664D01*
X0137937Y0104645D01*
X0138076Y0104623D01*
X0138214Y0104596D01*
X0138352Y0104566D01*
X0138488Y0104531D01*
X0138624Y0104493D01*
X0138758Y0104451D01*
X0138892Y0104405D01*
X0139024Y0104356D01*
X0139154Y0104302D01*
X0139283Y0104245D01*
X0139410Y0104185D01*
X0139536Y0104121D01*
X0139659Y0104053D01*
X0139781Y0103982D01*
X0139901Y0103908D01*
X0140018Y0103830D01*
X0140133Y0103749D01*
X0140246Y0103665D01*
X0140357Y0103578D01*
X0140465Y0103487D01*
X0140570Y0103394D01*
X0140673Y0103297D01*
X0140773Y0103198D01*
X0140870Y0103096D01*
X0140964Y0102991D01*
X0141055Y0102884D01*
X0141143Y0102774D01*
X0141228Y0102662D01*
X0141310Y0102547D01*
X0141389Y0102430D01*
X0141464Y0102311D01*
X0141536Y0102190D01*
X0141604Y0102067D01*
X0141669Y0101942D01*
X0141731Y0101815D01*
X0141788Y0101686D01*
X0141843Y0101556D01*
X0141893Y0101425D01*
X0141940Y0101292D01*
X0141983Y0101158D01*
X0142022Y0101022D01*
X0142057Y0100886D01*
X0142089Y0100749D01*
X0142116Y0100611D01*
X0142140Y0100472D01*
X0142160Y0100332D01*
X0142176Y0100192D01*
X0142188Y0100052D01*
X0142196Y0099911D01*
X0142200Y0099770D01*
X0142200Y0099630D01*
X0142196Y0099489D01*
X0142188Y0099348D01*
X0142176Y0099208D01*
X0142160Y0099068D01*
X0142140Y0098928D01*
X0142116Y0098789D01*
X0142089Y0098651D01*
X0142057Y0098514D01*
X0142022Y0098378D01*
X0141983Y0098242D01*
X0141940Y0098108D01*
X0141893Y0097975D01*
X0141843Y0097844D01*
X0141788Y0097714D01*
X0141731Y0097585D01*
X0141669Y0097458D01*
X0141604Y0097333D01*
X0141536Y0097210D01*
X0141464Y0097089D01*
X0141389Y0096970D01*
X0141310Y0096853D01*
X0141228Y0096738D01*
X0141143Y0096626D01*
X0141055Y0096516D01*
X0140964Y0096409D01*
X0140870Y0096304D01*
X0140773Y0096202D01*
X0140673Y0096103D01*
X0140570Y0096006D01*
X0140465Y0095913D01*
X0140357Y0095822D01*
X0140246Y0095735D01*
X0140133Y0095651D01*
X0140018Y0095570D01*
X0139901Y0095492D01*
X0139781Y0095418D01*
X0139659Y0095347D01*
X0139536Y0095279D01*
X0139410Y0095215D01*
X0139283Y0095155D01*
X0139154Y0095098D01*
X0139024Y0095044D01*
X0138892Y0094995D01*
X0138758Y0094949D01*
X0138624Y0094907D01*
X0138488Y0094869D01*
X0138352Y0094834D01*
X0138214Y0094804D01*
X0138076Y0094777D01*
X0137937Y0094755D01*
X0137797Y0094736D01*
X0137657Y0094721D01*
X0137517Y0094710D01*
X0137376Y0094703D01*
X0137235Y0094700D01*
X0137094Y0094701D01*
X0136954Y0094706D01*
X0136813Y0094715D01*
X0136673Y0094728D01*
X0136533Y0094745D01*
X0136393Y0094765D01*
X0136255Y0094790D01*
X0136117Y0094819D01*
X0135980Y0094851D01*
X0135844Y0094887D01*
X0135709Y0094928D01*
X0135575Y0094972D01*
X0135442Y0095019D01*
X0135311Y0095071D01*
X0135181Y0095126D01*
X0135053Y0095184D01*
X0134927Y0095247D01*
X0134802Y0095312D01*
X0134680Y0095382D01*
X0134559Y0095454D01*
X0134440Y0095530D01*
X0134324Y0095610D01*
X0134210Y0095693D01*
X0134098Y0095778D01*
X0133989Y0095867D01*
X0133882Y0095959D01*
X0133778Y0096054D01*
X0133677Y0096152D01*
X0133578Y0096253D01*
X0133483Y0096356D01*
X0133390Y0096462D01*
X0133300Y0096571D01*
X0133214Y0096682D01*
X0133130Y0096795D01*
X0133050Y0096911D01*
X0132973Y0097029D01*
X0132900Y0097149D01*
X0132829Y0097272D01*
X0132763Y0097396D01*
X0132700Y0097522D01*
X0132640Y0097649D01*
X0132584Y0097778D01*
X0132532Y0097909D01*
X0132483Y0098041D01*
X0132438Y0098175D01*
X0132397Y0098310D01*
X0132360Y0098446D01*
X0132326Y0098582D01*
X0132297Y0098720D01*
X0132271Y0098859D01*
X0132250Y0098998D01*
X0132232Y0099138D01*
X0132218Y0099278D01*
X0132208Y0099418D01*
X0132202Y0099559D01*
X0132200Y0099700D01*
X0132200Y0017200D02*
X0132202Y0017341D01*
X0132208Y0017482D01*
X0132218Y0017622D01*
X0132232Y0017762D01*
X0132250Y0017902D01*
X0132271Y0018041D01*
X0132297Y0018180D01*
X0132326Y0018318D01*
X0132360Y0018454D01*
X0132397Y0018590D01*
X0132438Y0018725D01*
X0132483Y0018859D01*
X0132532Y0018991D01*
X0132584Y0019122D01*
X0132640Y0019251D01*
X0132700Y0019378D01*
X0132763Y0019504D01*
X0132829Y0019628D01*
X0132900Y0019751D01*
X0132973Y0019871D01*
X0133050Y0019989D01*
X0133130Y0020105D01*
X0133214Y0020218D01*
X0133300Y0020329D01*
X0133390Y0020438D01*
X0133483Y0020544D01*
X0133578Y0020647D01*
X0133677Y0020748D01*
X0133778Y0020846D01*
X0133882Y0020941D01*
X0133989Y0021033D01*
X0134098Y0021122D01*
X0134210Y0021207D01*
X0134324Y0021290D01*
X0134440Y0021370D01*
X0134559Y0021446D01*
X0134680Y0021518D01*
X0134802Y0021588D01*
X0134927Y0021653D01*
X0135053Y0021716D01*
X0135181Y0021774D01*
X0135311Y0021829D01*
X0135442Y0021881D01*
X0135575Y0021928D01*
X0135709Y0021972D01*
X0135844Y0022013D01*
X0135980Y0022049D01*
X0136117Y0022081D01*
X0136255Y0022110D01*
X0136393Y0022135D01*
X0136533Y0022155D01*
X0136673Y0022172D01*
X0136813Y0022185D01*
X0136954Y0022194D01*
X0137094Y0022199D01*
X0137235Y0022200D01*
X0137376Y0022197D01*
X0137517Y0022190D01*
X0137657Y0022179D01*
X0137797Y0022164D01*
X0137937Y0022145D01*
X0138076Y0022123D01*
X0138214Y0022096D01*
X0138352Y0022066D01*
X0138488Y0022031D01*
X0138624Y0021993D01*
X0138758Y0021951D01*
X0138892Y0021905D01*
X0139024Y0021856D01*
X0139154Y0021802D01*
X0139283Y0021745D01*
X0139410Y0021685D01*
X0139536Y0021621D01*
X0139659Y0021553D01*
X0139781Y0021482D01*
X0139901Y0021408D01*
X0140018Y0021330D01*
X0140133Y0021249D01*
X0140246Y0021165D01*
X0140357Y0021078D01*
X0140465Y0020987D01*
X0140570Y0020894D01*
X0140673Y0020797D01*
X0140773Y0020698D01*
X0140870Y0020596D01*
X0140964Y0020491D01*
X0141055Y0020384D01*
X0141143Y0020274D01*
X0141228Y0020162D01*
X0141310Y0020047D01*
X0141389Y0019930D01*
X0141464Y0019811D01*
X0141536Y0019690D01*
X0141604Y0019567D01*
X0141669Y0019442D01*
X0141731Y0019315D01*
X0141788Y0019186D01*
X0141843Y0019056D01*
X0141893Y0018925D01*
X0141940Y0018792D01*
X0141983Y0018658D01*
X0142022Y0018522D01*
X0142057Y0018386D01*
X0142089Y0018249D01*
X0142116Y0018111D01*
X0142140Y0017972D01*
X0142160Y0017832D01*
X0142176Y0017692D01*
X0142188Y0017552D01*
X0142196Y0017411D01*
X0142200Y0017270D01*
X0142200Y0017130D01*
X0142196Y0016989D01*
X0142188Y0016848D01*
X0142176Y0016708D01*
X0142160Y0016568D01*
X0142140Y0016428D01*
X0142116Y0016289D01*
X0142089Y0016151D01*
X0142057Y0016014D01*
X0142022Y0015878D01*
X0141983Y0015742D01*
X0141940Y0015608D01*
X0141893Y0015475D01*
X0141843Y0015344D01*
X0141788Y0015214D01*
X0141731Y0015085D01*
X0141669Y0014958D01*
X0141604Y0014833D01*
X0141536Y0014710D01*
X0141464Y0014589D01*
X0141389Y0014470D01*
X0141310Y0014353D01*
X0141228Y0014238D01*
X0141143Y0014126D01*
X0141055Y0014016D01*
X0140964Y0013909D01*
X0140870Y0013804D01*
X0140773Y0013702D01*
X0140673Y0013603D01*
X0140570Y0013506D01*
X0140465Y0013413D01*
X0140357Y0013322D01*
X0140246Y0013235D01*
X0140133Y0013151D01*
X0140018Y0013070D01*
X0139901Y0012992D01*
X0139781Y0012918D01*
X0139659Y0012847D01*
X0139536Y0012779D01*
X0139410Y0012715D01*
X0139283Y0012655D01*
X0139154Y0012598D01*
X0139024Y0012544D01*
X0138892Y0012495D01*
X0138758Y0012449D01*
X0138624Y0012407D01*
X0138488Y0012369D01*
X0138352Y0012334D01*
X0138214Y0012304D01*
X0138076Y0012277D01*
X0137937Y0012255D01*
X0137797Y0012236D01*
X0137657Y0012221D01*
X0137517Y0012210D01*
X0137376Y0012203D01*
X0137235Y0012200D01*
X0137094Y0012201D01*
X0136954Y0012206D01*
X0136813Y0012215D01*
X0136673Y0012228D01*
X0136533Y0012245D01*
X0136393Y0012265D01*
X0136255Y0012290D01*
X0136117Y0012319D01*
X0135980Y0012351D01*
X0135844Y0012387D01*
X0135709Y0012428D01*
X0135575Y0012472D01*
X0135442Y0012519D01*
X0135311Y0012571D01*
X0135181Y0012626D01*
X0135053Y0012684D01*
X0134927Y0012747D01*
X0134802Y0012812D01*
X0134680Y0012882D01*
X0134559Y0012954D01*
X0134440Y0013030D01*
X0134324Y0013110D01*
X0134210Y0013193D01*
X0134098Y0013278D01*
X0133989Y0013367D01*
X0133882Y0013459D01*
X0133778Y0013554D01*
X0133677Y0013652D01*
X0133578Y0013753D01*
X0133483Y0013856D01*
X0133390Y0013962D01*
X0133300Y0014071D01*
X0133214Y0014182D01*
X0133130Y0014295D01*
X0133050Y0014411D01*
X0132973Y0014529D01*
X0132900Y0014649D01*
X0132829Y0014772D01*
X0132763Y0014896D01*
X0132700Y0015022D01*
X0132640Y0015149D01*
X0132584Y0015278D01*
X0132532Y0015409D01*
X0132483Y0015541D01*
X0132438Y0015675D01*
X0132397Y0015810D01*
X0132360Y0015946D01*
X0132326Y0016082D01*
X0132297Y0016220D01*
X0132271Y0016359D01*
X0132250Y0016498D01*
X0132232Y0016638D01*
X0132218Y0016778D01*
X0132208Y0016918D01*
X0132202Y0017059D01*
X0132200Y0017200D01*
M02*
