G75*
%MOIN*%
%OFA0B0*%
%FSLAX25Y25*%
%IPPOS*%
%LPD*%
%AMOC8*
5,1,8,0,0,1.08239X$1,22.5*
%
%ADD10R,0.05906X0.11417*%
%ADD11R,0.05512X0.05512*%
%ADD12R,0.07087X0.06693*%
%ADD13R,0.04331X0.02756*%
%ADD14R,0.07087X0.02756*%
%ADD15R,0.13386X0.07283*%
%ADD16R,0.15748X0.21654*%
%ADD17R,0.05000X0.10000*%
%ADD18R,0.03100X0.03500*%
%ADD19R,0.05906X0.05118*%
%ADD20C,0.04400*%
%ADD21R,0.12598X0.07087*%
%ADD22R,0.10000X0.05000*%
%ADD23R,0.05118X0.06299*%
%ADD24C,0.02700*%
%ADD25C,0.02400*%
%ADD26C,0.02781*%
%ADD27C,0.01600*%
%ADD28C,0.03569*%
D10*
X0091294Y0094200D03*
X0103106Y0094200D03*
D11*
X0107200Y0040306D03*
X0107200Y0026094D03*
D12*
X0105271Y0079200D03*
X0089129Y0079200D03*
D13*
X0087810Y0067606D03*
X0087810Y0055794D03*
X0103578Y0055794D03*
X0103578Y0067606D03*
D14*
X0089188Y0061700D03*
D15*
X0099169Y0061700D03*
D16*
X0073854Y0076700D03*
X0030546Y0076700D03*
D17*
X0072200Y0014700D03*
X0082200Y0014700D03*
D18*
X0115500Y0041700D03*
X0123100Y0041700D03*
X0119300Y0033700D03*
D19*
X0097200Y0033440D03*
X0097200Y0025960D03*
D20*
X0052200Y0034200D03*
X0042200Y0034200D03*
X0032200Y0034200D03*
D21*
X0119200Y0056676D03*
X0119200Y0078724D03*
D22*
X0139700Y0062200D03*
X0139700Y0052200D03*
D23*
X0081137Y0027200D03*
X0073263Y0027200D03*
D24*
X0072200Y0027200D01*
X0072200Y0014700D01*
X0039700Y0014700D01*
X0032200Y0022200D01*
X0027200Y0027200D01*
X0022200Y0032200D01*
X0017200Y0037200D01*
X0017200Y0072200D01*
X0021700Y0076700D01*
X0030546Y0076700D01*
X0073854Y0076700D02*
X0073854Y0079200D01*
X0089129Y0079200D01*
X0087810Y0079200D01*
X0087810Y0067606D01*
X0103578Y0067606D02*
X0103578Y0079200D01*
X0103578Y0094200D01*
X0103106Y0094200D01*
X0103578Y0079200D02*
X0105271Y0079200D01*
X0119200Y0079200D01*
X0119200Y0078724D01*
X0127686Y0078724D01*
X0130200Y0076209D01*
X0130200Y0050200D01*
X0127200Y0047200D01*
X0117200Y0047200D01*
X0115500Y0045500D01*
X0115500Y0041700D01*
X0107200Y0041700D01*
X0107200Y0040306D01*
X0098392Y0047200D02*
X0087200Y0047200D01*
X0082200Y0042200D01*
X0082200Y0027200D01*
X0081137Y0027200D01*
X0082200Y0027200D02*
X0082200Y0014700D01*
X0097200Y0025960D02*
X0097200Y0026094D01*
X0107200Y0026094D01*
X0127003Y0026094D01*
X0130200Y0029291D01*
X0130200Y0038659D01*
X0127159Y0041700D01*
X0123100Y0041700D01*
X0124200Y0033700D02*
X0119300Y0033700D01*
X0139700Y0033700D02*
X0139700Y0052200D01*
X0119200Y0055794D02*
X0103578Y0055794D01*
X0103578Y0052386D01*
X0098392Y0047200D01*
X0119200Y0055794D02*
X0119200Y0056676D01*
D25*
X0022754Y0011032D02*
X0021832Y0010500D01*
X0066900Y0010500D01*
X0066900Y0010550D01*
X0038875Y0010550D01*
X0037349Y0011182D01*
X0036182Y0012349D01*
X0028682Y0019849D01*
X0023682Y0024849D01*
X0018682Y0029849D01*
X0013682Y0034849D01*
X0013050Y0036375D01*
X0013050Y0073025D01*
X0013682Y0074551D01*
X0014849Y0075718D01*
X0019349Y0080218D01*
X0019872Y0080435D01*
X0019872Y0088084D01*
X0020299Y0089113D01*
X0021086Y0089900D01*
X0022115Y0090327D01*
X0036900Y0090327D01*
X0036900Y0102257D01*
X0037326Y0103286D01*
X0038114Y0104074D01*
X0039143Y0104500D01*
X0065257Y0104500D01*
X0066286Y0104074D01*
X0067074Y0103286D01*
X0067500Y0102257D01*
X0067500Y0090327D01*
X0082285Y0090327D01*
X0083314Y0089900D01*
X0084101Y0089113D01*
X0084528Y0088084D01*
X0084528Y0085139D01*
X0085029Y0085346D01*
X0093229Y0085346D01*
X0094259Y0084920D01*
X0095046Y0084133D01*
X0095472Y0083103D01*
X0095472Y0075297D01*
X0095046Y0074267D01*
X0094259Y0073480D01*
X0093229Y0073054D01*
X0091960Y0073054D01*
X0091960Y0070959D01*
X0092349Y0070570D01*
X0092776Y0069540D01*
X0092776Y0067542D01*
X0098548Y0067542D01*
X0098548Y0062321D01*
X0099789Y0062321D01*
X0099789Y0063891D01*
X0099039Y0064641D01*
X0098613Y0065671D01*
X0098613Y0069540D01*
X0099039Y0070570D01*
X0099428Y0070959D01*
X0099428Y0074193D01*
X0099354Y0074267D01*
X0098928Y0075297D01*
X0098928Y0083103D01*
X0099354Y0084133D01*
X0099428Y0084207D01*
X0099428Y0085761D01*
X0098567Y0086118D01*
X0097779Y0086905D01*
X0097353Y0087934D01*
X0097353Y0100466D01*
X0097779Y0101495D01*
X0098567Y0102282D01*
X0099596Y0102709D01*
X0106615Y0102709D01*
X0107644Y0102282D01*
X0108432Y0101495D01*
X0108858Y0100466D01*
X0108858Y0087934D01*
X0108432Y0086905D01*
X0107728Y0086201D01*
X0107728Y0085346D01*
X0109371Y0085346D01*
X0110400Y0084920D01*
X0110997Y0084323D01*
X0111315Y0084641D01*
X0112344Y0085067D01*
X0126056Y0085067D01*
X0127085Y0084641D01*
X0127873Y0083853D01*
X0128279Y0082874D01*
X0128511Y0082874D01*
X0130037Y0082242D01*
X0131204Y0081074D01*
X0133718Y0078560D01*
X0134350Y0077035D01*
X0134350Y0066884D01*
X0134410Y0066900D01*
X0139650Y0066900D01*
X0139650Y0062250D01*
X0139750Y0062250D01*
X0139750Y0066900D01*
X0143900Y0066900D01*
X0143900Y0095110D01*
X0142754Y0093532D01*
X0142754Y0093532D01*
X0142754Y0093532D01*
X0139765Y0091806D01*
X0139765Y0091806D01*
X0136332Y0091445D01*
X0136332Y0091445D01*
X0133050Y0092512D01*
X0133050Y0092512D01*
X0130485Y0094821D01*
X0130485Y0094821D01*
X0129081Y0097974D01*
X0129081Y0101426D01*
X0130485Y0104579D01*
X0130485Y0104579D01*
X0132508Y0106400D01*
X0021832Y0106400D01*
X0022754Y0105868D01*
X0022754Y0105868D01*
X0022754Y0105868D01*
X0024782Y0103076D01*
X0024782Y0103076D01*
X0025500Y0099700D01*
X0024782Y0096324D01*
X0024782Y0096324D01*
X0022754Y0093532D01*
X0022754Y0093532D01*
X0019765Y0091806D01*
X0016332Y0091445D01*
X0016332Y0091445D01*
X0013050Y0092512D01*
X0013050Y0092512D01*
X0010500Y0094808D01*
X0010500Y0022092D01*
X0013050Y0024388D01*
X0013050Y0024388D01*
X0013050Y0024388D01*
X0016332Y0025455D01*
X0016332Y0025455D01*
X0019765Y0025094D01*
X0019765Y0025094D01*
X0022754Y0023368D01*
X0022754Y0023368D01*
X0024782Y0020576D01*
X0024782Y0020576D01*
X0025500Y0017200D01*
X0024782Y0013824D01*
X0024782Y0013824D01*
X0022754Y0011032D01*
X0022754Y0011032D01*
X0022754Y0011032D01*
X0023455Y0011997D02*
X0036534Y0011997D01*
X0034135Y0014396D02*
X0024904Y0014396D01*
X0025414Y0016794D02*
X0031737Y0016794D01*
X0029338Y0019193D02*
X0025076Y0019193D01*
X0024045Y0021591D02*
X0026940Y0021591D01*
X0024541Y0023990D02*
X0021677Y0023990D01*
X0022143Y0026388D02*
X0010500Y0026388D01*
X0010500Y0023990D02*
X0012608Y0023990D01*
X0010500Y0028787D02*
X0019744Y0028787D01*
X0017346Y0031185D02*
X0010500Y0031185D01*
X0010500Y0033584D02*
X0014947Y0033584D01*
X0013213Y0035982D02*
X0010500Y0035982D01*
X0010500Y0038381D02*
X0013050Y0038381D01*
X0013050Y0040779D02*
X0010500Y0040779D01*
X0010500Y0043178D02*
X0013050Y0043178D01*
X0013050Y0045576D02*
X0010500Y0045576D01*
X0010500Y0047975D02*
X0013050Y0047975D01*
X0013050Y0050373D02*
X0010500Y0050373D01*
X0010500Y0052772D02*
X0013050Y0052772D01*
X0013050Y0055170D02*
X0010500Y0055170D01*
X0010500Y0057569D02*
X0013050Y0057569D01*
X0013050Y0059967D02*
X0010500Y0059967D01*
X0010500Y0062366D02*
X0013050Y0062366D01*
X0013050Y0064764D02*
X0010500Y0064764D01*
X0010500Y0067163D02*
X0013050Y0067163D01*
X0013050Y0069561D02*
X0010500Y0069561D01*
X0010500Y0071960D02*
X0013050Y0071960D01*
X0013602Y0074358D02*
X0010500Y0074358D01*
X0010500Y0076757D02*
X0015888Y0076757D01*
X0018286Y0079155D02*
X0010500Y0079155D01*
X0010500Y0081554D02*
X0019872Y0081554D01*
X0019872Y0083952D02*
X0010500Y0083952D01*
X0010500Y0086351D02*
X0019872Y0086351D01*
X0020148Y0088749D02*
X0010500Y0088749D01*
X0010500Y0091148D02*
X0036900Y0091148D01*
X0036900Y0093546D02*
X0022764Y0093546D01*
X0024507Y0095945D02*
X0036900Y0095945D01*
X0036900Y0098343D02*
X0025212Y0098343D01*
X0025279Y0100742D02*
X0036900Y0100742D01*
X0037266Y0103140D02*
X0024736Y0103140D01*
X0022993Y0105539D02*
X0131552Y0105539D01*
X0129845Y0103140D02*
X0067134Y0103140D01*
X0067500Y0100742D02*
X0086287Y0100742D01*
X0086292Y0100758D02*
X0086142Y0100198D01*
X0086142Y0094476D01*
X0091018Y0094476D01*
X0091018Y0093924D01*
X0086142Y0093924D01*
X0086142Y0088202D01*
X0086292Y0087642D01*
X0086581Y0087141D01*
X0086991Y0086731D01*
X0087493Y0086441D01*
X0088052Y0086291D01*
X0091018Y0086291D01*
X0091018Y0093924D01*
X0091571Y0093924D01*
X0091571Y0094476D01*
X0096447Y0094476D01*
X0096447Y0100198D01*
X0096297Y0100758D01*
X0096008Y0101259D01*
X0095598Y0101669D01*
X0095096Y0101959D01*
X0094537Y0102109D01*
X0091571Y0102109D01*
X0091571Y0094476D01*
X0091018Y0094476D01*
X0091018Y0102109D01*
X0088052Y0102109D01*
X0087493Y0101959D01*
X0086991Y0101669D01*
X0086581Y0101259D01*
X0086292Y0100758D01*
X0086142Y0098343D02*
X0067500Y0098343D01*
X0067500Y0095945D02*
X0086142Y0095945D01*
X0086142Y0093546D02*
X0067500Y0093546D01*
X0067500Y0091148D02*
X0086142Y0091148D01*
X0086142Y0088749D02*
X0084252Y0088749D01*
X0084528Y0086351D02*
X0087830Y0086351D01*
X0091018Y0086351D02*
X0091571Y0086351D01*
X0091571Y0086291D02*
X0094537Y0086291D01*
X0095096Y0086441D01*
X0095598Y0086731D01*
X0096008Y0087141D01*
X0096297Y0087642D01*
X0096447Y0088202D01*
X0096447Y0093924D01*
X0091571Y0093924D01*
X0091571Y0086291D01*
X0091571Y0088749D02*
X0091018Y0088749D01*
X0091018Y0091148D02*
X0091571Y0091148D01*
X0091571Y0093546D02*
X0091018Y0093546D01*
X0091018Y0095945D02*
X0091571Y0095945D01*
X0091571Y0098343D02*
X0091018Y0098343D01*
X0091018Y0100742D02*
X0091571Y0100742D01*
X0096302Y0100742D02*
X0097467Y0100742D01*
X0097353Y0098343D02*
X0096447Y0098343D01*
X0096447Y0095945D02*
X0097353Y0095945D01*
X0097353Y0093546D02*
X0096447Y0093546D01*
X0096447Y0091148D02*
X0097353Y0091148D01*
X0097353Y0088749D02*
X0096447Y0088749D01*
X0094759Y0086351D02*
X0098333Y0086351D01*
X0099279Y0083952D02*
X0095121Y0083952D01*
X0095472Y0081554D02*
X0098928Y0081554D01*
X0098928Y0079155D02*
X0095472Y0079155D01*
X0095472Y0076757D02*
X0098928Y0076757D01*
X0099316Y0074358D02*
X0095084Y0074358D01*
X0091960Y0071960D02*
X0099428Y0071960D01*
X0098621Y0069561D02*
X0092767Y0069561D01*
X0098548Y0067163D02*
X0098613Y0067163D01*
X0098548Y0064764D02*
X0098988Y0064764D01*
X0098548Y0062366D02*
X0099789Y0062366D01*
X0099789Y0062321D02*
X0108061Y0062321D01*
X0108061Y0064586D01*
X0108117Y0064641D01*
X0108543Y0065671D01*
X0108543Y0069540D01*
X0108117Y0070570D01*
X0107728Y0070959D01*
X0107728Y0073054D01*
X0109371Y0073054D01*
X0110400Y0073480D01*
X0110523Y0073603D01*
X0110527Y0073594D01*
X0111315Y0072807D01*
X0112344Y0072380D01*
X0126050Y0072380D01*
X0126050Y0063020D01*
X0112344Y0063020D01*
X0111315Y0062593D01*
X0110527Y0061806D01*
X0110101Y0060777D01*
X0110101Y0059944D01*
X0108061Y0059944D01*
X0108061Y0061079D01*
X0099789Y0061079D01*
X0099789Y0059509D01*
X0099039Y0058759D01*
X0098613Y0057729D01*
X0098613Y0053860D01*
X0098779Y0053457D01*
X0096673Y0051350D01*
X0086375Y0051350D01*
X0084849Y0050718D01*
X0079849Y0045718D01*
X0078682Y0044551D01*
X0078050Y0043025D01*
X0078050Y0033150D01*
X0078021Y0033150D01*
X0077200Y0032810D01*
X0076379Y0033150D01*
X0070147Y0033150D01*
X0069118Y0032723D01*
X0068330Y0031936D01*
X0067904Y0030907D01*
X0067904Y0023493D01*
X0068050Y0023141D01*
X0068050Y0022010D01*
X0067326Y0021286D01*
X0066900Y0020257D01*
X0066900Y0018850D01*
X0041419Y0018850D01*
X0034551Y0025718D01*
X0030972Y0029297D01*
X0031205Y0029200D01*
X0033195Y0029200D01*
X0035032Y0029961D01*
X0036439Y0031368D01*
X0037200Y0033205D01*
X0037961Y0031368D01*
X0039368Y0029961D01*
X0041205Y0029200D01*
X0043195Y0029200D01*
X0045032Y0029961D01*
X0046439Y0031368D01*
X0047200Y0033205D01*
X0047200Y0035195D01*
X0046639Y0036548D01*
X0048691Y0038600D01*
X0069265Y0038600D01*
X0070588Y0039148D01*
X0071601Y0040161D01*
X0075252Y0043812D01*
X0075252Y0043812D01*
X0083634Y0052194D01*
X0083907Y0052194D01*
X0084059Y0052043D01*
X0085088Y0051617D01*
X0090533Y0051617D01*
X0091562Y0052043D01*
X0092349Y0052830D01*
X0092776Y0053860D01*
X0092776Y0055858D01*
X0098548Y0055858D01*
X0098548Y0061079D01*
X0099789Y0061079D01*
X0099789Y0062321D01*
X0098548Y0062321D02*
X0098548Y0061079D01*
X0094931Y0061079D01*
X0094931Y0061700D01*
X0089188Y0061700D01*
X0089188Y0061700D01*
X0083445Y0061700D01*
X0083445Y0063368D01*
X0083541Y0063727D01*
X0083314Y0063499D01*
X0082285Y0063073D01*
X0067500Y0063073D01*
X0067500Y0051143D01*
X0067074Y0050114D01*
X0066286Y0049326D01*
X0065257Y0048900D01*
X0039143Y0048900D01*
X0038114Y0049326D01*
X0037326Y0050114D01*
X0036900Y0051143D01*
X0036900Y0063073D01*
X0022115Y0063073D01*
X0021350Y0063390D01*
X0021350Y0038919D01*
X0024551Y0035718D01*
X0027297Y0032972D01*
X0027200Y0033205D01*
X0027200Y0035195D01*
X0027961Y0037032D01*
X0029368Y0038439D01*
X0031205Y0039200D01*
X0033195Y0039200D01*
X0035032Y0038439D01*
X0036439Y0037032D01*
X0037200Y0035195D01*
X0037200Y0033205D01*
X0037200Y0035195D01*
X0037961Y0037032D01*
X0038600Y0037671D01*
X0038600Y0037916D01*
X0039148Y0039239D01*
X0040161Y0040252D01*
X0045161Y0045252D01*
X0046484Y0045800D01*
X0067057Y0045800D01*
X0070161Y0048903D01*
X0070161Y0048903D01*
X0080104Y0058846D01*
X0081427Y0059394D01*
X0083640Y0059394D01*
X0083595Y0059473D01*
X0083445Y0060032D01*
X0083445Y0061700D01*
X0089188Y0061700D01*
X0094931Y0061700D01*
X0094931Y0062321D01*
X0098548Y0062321D01*
X0098548Y0059967D02*
X0099789Y0059967D01*
X0098613Y0057569D02*
X0098548Y0057569D01*
X0098613Y0055170D02*
X0092776Y0055170D01*
X0092291Y0052772D02*
X0098094Y0052772D01*
X0105035Y0047975D02*
X0112106Y0047975D01*
X0111982Y0047851D02*
X0111350Y0046325D01*
X0111350Y0045850D01*
X0110542Y0045850D01*
X0110513Y0045862D01*
X0103887Y0045862D01*
X0102858Y0045436D01*
X0102070Y0044648D01*
X0101644Y0043619D01*
X0101644Y0037619D01*
X0101504Y0037760D01*
X0101002Y0038049D01*
X0100442Y0038199D01*
X0097280Y0038199D01*
X0097280Y0033520D01*
X0102353Y0033520D01*
X0102353Y0035682D01*
X0102858Y0035177D01*
X0103887Y0034750D01*
X0110513Y0034750D01*
X0111542Y0035177D01*
X0112330Y0035964D01*
X0112756Y0036993D01*
X0112756Y0037414D01*
X0113393Y0037150D01*
X0115490Y0037150D01*
X0115376Y0037036D01*
X0114950Y0036007D01*
X0114950Y0031393D01*
X0115376Y0030364D01*
X0115497Y0030244D01*
X0112409Y0030244D01*
X0112330Y0030436D01*
X0111542Y0031223D01*
X0110513Y0031650D01*
X0103887Y0031650D01*
X0102858Y0031223D01*
X0102353Y0030718D01*
X0102353Y0033361D01*
X0097280Y0033361D01*
X0097280Y0033520D01*
X0097120Y0033520D01*
X0097120Y0033361D01*
X0092047Y0033361D01*
X0092047Y0030591D01*
X0092113Y0030345D01*
X0091874Y0030105D01*
X0091447Y0029076D01*
X0091447Y0022844D01*
X0091874Y0021815D01*
X0092661Y0021027D01*
X0093690Y0020601D01*
X0100710Y0020601D01*
X0101739Y0021027D01*
X0102267Y0021555D01*
X0102858Y0020964D01*
X0103887Y0020538D01*
X0110513Y0020538D01*
X0111542Y0020964D01*
X0112330Y0021752D01*
X0112409Y0021944D01*
X0127828Y0021944D01*
X0129353Y0022576D01*
X0130521Y0023743D01*
X0133718Y0026940D01*
X0134350Y0028466D01*
X0134350Y0039484D01*
X0133718Y0041009D01*
X0132551Y0042177D01*
X0130298Y0044429D01*
X0132551Y0046682D01*
X0133171Y0047302D01*
X0134143Y0046900D01*
X0135550Y0046900D01*
X0135550Y0035660D01*
X0135116Y0034612D01*
X0135116Y0032788D01*
X0135814Y0031103D01*
X0137103Y0029814D01*
X0138788Y0029116D01*
X0140612Y0029116D01*
X0142297Y0029814D01*
X0143586Y0031103D01*
X0143900Y0031861D01*
X0143900Y0021790D01*
X0142754Y0023368D01*
X0142754Y0023368D01*
X0142754Y0023368D01*
X0139765Y0025094D01*
X0136332Y0025455D01*
X0133050Y0024388D01*
X0130485Y0022079D01*
X0130485Y0022079D01*
X0129081Y0018926D01*
X0129081Y0015474D01*
X0130485Y0012321D01*
X0132508Y0010500D01*
X0087500Y0010500D01*
X0087500Y0020257D01*
X0087074Y0021286D01*
X0086350Y0022010D01*
X0086350Y0023141D01*
X0086496Y0023493D01*
X0086496Y0030907D01*
X0086350Y0031259D01*
X0086350Y0040481D01*
X0088919Y0043050D01*
X0099217Y0043050D01*
X0100742Y0043682D01*
X0101910Y0044849D01*
X0107096Y0050036D01*
X0107728Y0051561D01*
X0107728Y0051644D01*
X0110487Y0051644D01*
X0110527Y0051547D01*
X0111315Y0050759D01*
X0112344Y0050333D01*
X0114464Y0050333D01*
X0113682Y0049551D01*
X0111982Y0047851D01*
X0112247Y0050373D02*
X0107236Y0050373D01*
X0103197Y0045576D02*
X0102637Y0045576D01*
X0101644Y0043178D02*
X0099525Y0043178D01*
X0101644Y0040779D02*
X0086648Y0040779D01*
X0086350Y0038381D02*
X0101644Y0038381D01*
X0097280Y0035982D02*
X0097120Y0035982D01*
X0097120Y0038199D02*
X0093958Y0038199D01*
X0093398Y0038049D01*
X0092896Y0037760D01*
X0092487Y0037350D01*
X0092197Y0036848D01*
X0092047Y0036289D01*
X0092047Y0033520D01*
X0097120Y0033520D01*
X0097120Y0038199D01*
X0097120Y0033584D02*
X0097280Y0033584D01*
X0102353Y0033584D02*
X0114950Y0033584D01*
X0114950Y0035982D02*
X0112337Y0035982D01*
X0111580Y0031185D02*
X0115036Y0031185D01*
X0112169Y0021591D02*
X0130268Y0021591D01*
X0130767Y0023990D02*
X0132608Y0023990D01*
X0133050Y0024388D02*
X0133050Y0024388D01*
X0133166Y0026388D02*
X0143900Y0026388D01*
X0143900Y0023990D02*
X0141677Y0023990D01*
X0139765Y0025094D02*
X0139765Y0025094D01*
X0136332Y0025455D02*
X0136332Y0025455D01*
X0134350Y0028787D02*
X0143900Y0028787D01*
X0143900Y0031185D02*
X0143620Y0031185D01*
X0135780Y0031185D02*
X0134350Y0031185D01*
X0134350Y0033584D02*
X0135116Y0033584D01*
X0135550Y0035982D02*
X0134350Y0035982D01*
X0134350Y0038381D02*
X0135550Y0038381D01*
X0135550Y0040779D02*
X0133814Y0040779D01*
X0135550Y0043178D02*
X0131550Y0043178D01*
X0131445Y0045576D02*
X0135550Y0045576D01*
X0134410Y0057500D02*
X0134350Y0057516D01*
X0134350Y0057500D01*
X0143900Y0057500D01*
X0143900Y0057500D01*
X0139750Y0057500D01*
X0139750Y0062150D01*
X0139650Y0062150D01*
X0139650Y0057500D01*
X0134410Y0057500D01*
X0139650Y0057569D02*
X0139750Y0057569D01*
X0139750Y0059967D02*
X0139650Y0059967D01*
X0139650Y0062366D02*
X0139750Y0062366D01*
X0139750Y0064764D02*
X0139650Y0064764D01*
X0143900Y0067163D02*
X0134350Y0067163D01*
X0134350Y0069561D02*
X0143900Y0069561D01*
X0143900Y0071960D02*
X0134350Y0071960D01*
X0134350Y0074358D02*
X0143900Y0074358D01*
X0143900Y0076757D02*
X0134350Y0076757D01*
X0133123Y0079155D02*
X0143900Y0079155D01*
X0143900Y0081554D02*
X0130724Y0081554D01*
X0127774Y0083952D02*
X0143900Y0083952D01*
X0143900Y0086351D02*
X0107878Y0086351D01*
X0108858Y0088749D02*
X0143900Y0088749D01*
X0143900Y0091148D02*
X0108858Y0091148D01*
X0108858Y0093546D02*
X0131901Y0093546D01*
X0129985Y0095945D02*
X0108858Y0095945D01*
X0108858Y0098343D02*
X0129081Y0098343D01*
X0129081Y0100742D02*
X0108744Y0100742D01*
X0142764Y0093546D02*
X0143900Y0093546D01*
X0126050Y0071960D02*
X0107728Y0071960D01*
X0108535Y0069561D02*
X0126050Y0069561D01*
X0126050Y0067163D02*
X0108543Y0067163D01*
X0108168Y0064764D02*
X0126050Y0064764D01*
X0111087Y0062366D02*
X0108061Y0062366D01*
X0108061Y0059967D02*
X0110101Y0059967D01*
X0089188Y0061700D02*
X0089188Y0061700D01*
X0083445Y0062366D02*
X0067500Y0062366D01*
X0067500Y0059967D02*
X0083462Y0059967D01*
X0078826Y0057569D02*
X0067500Y0057569D01*
X0067500Y0055170D02*
X0076428Y0055170D01*
X0074029Y0052772D02*
X0067500Y0052772D01*
X0067181Y0050373D02*
X0071631Y0050373D01*
X0069232Y0047975D02*
X0021350Y0047975D01*
X0021350Y0050373D02*
X0037219Y0050373D01*
X0036900Y0052772D02*
X0021350Y0052772D01*
X0021350Y0055170D02*
X0036900Y0055170D01*
X0036900Y0057569D02*
X0021350Y0057569D01*
X0021350Y0059967D02*
X0036900Y0059967D01*
X0036900Y0062366D02*
X0021350Y0062366D01*
X0021350Y0045576D02*
X0045944Y0045576D01*
X0043087Y0043178D02*
X0021350Y0043178D01*
X0021350Y0040779D02*
X0040688Y0040779D01*
X0038792Y0038381D02*
X0035090Y0038381D01*
X0036874Y0035982D02*
X0037526Y0035982D01*
X0037200Y0033584D02*
X0037200Y0033584D01*
X0036256Y0031185D02*
X0038144Y0031185D01*
X0033881Y0026388D02*
X0067904Y0026388D01*
X0067904Y0023990D02*
X0036279Y0023990D01*
X0038678Y0021591D02*
X0067631Y0021591D01*
X0066900Y0019193D02*
X0041076Y0019193D01*
X0031482Y0028787D02*
X0067904Y0028787D01*
X0068019Y0031185D02*
X0055408Y0031185D01*
X0055556Y0031334D02*
X0055963Y0031894D01*
X0056278Y0032511D01*
X0056492Y0033170D01*
X0056600Y0033854D01*
X0056600Y0034200D01*
X0056600Y0034546D01*
X0056492Y0035230D01*
X0056278Y0035889D01*
X0055963Y0036506D01*
X0055556Y0037066D01*
X0055066Y0037556D01*
X0054506Y0037963D01*
X0053889Y0038278D01*
X0053230Y0038492D01*
X0052546Y0038600D01*
X0052200Y0038600D01*
X0052200Y0034200D01*
X0052200Y0034200D01*
X0056600Y0034200D01*
X0052200Y0034200D01*
X0052200Y0034200D01*
X0052200Y0034200D01*
X0047800Y0034200D01*
X0047800Y0034546D01*
X0047908Y0035230D01*
X0048122Y0035889D01*
X0048437Y0036506D01*
X0048844Y0037066D01*
X0049334Y0037556D01*
X0049894Y0037963D01*
X0050511Y0038278D01*
X0051170Y0038492D01*
X0051854Y0038600D01*
X0052200Y0038600D01*
X0052200Y0034200D01*
X0052200Y0029800D01*
X0052546Y0029800D01*
X0053230Y0029908D01*
X0053889Y0030122D01*
X0054506Y0030437D01*
X0055066Y0030844D01*
X0055556Y0031334D01*
X0056557Y0033584D02*
X0078050Y0033584D01*
X0078050Y0035982D02*
X0056230Y0035982D01*
X0053572Y0038381D02*
X0078050Y0038381D01*
X0078050Y0040779D02*
X0072219Y0040779D01*
X0074617Y0043178D02*
X0078113Y0043178D01*
X0077016Y0045576D02*
X0079707Y0045576D01*
X0079414Y0047975D02*
X0082106Y0047975D01*
X0081813Y0050373D02*
X0084504Y0050373D01*
X0086350Y0035982D02*
X0092047Y0035982D01*
X0092047Y0033584D02*
X0086350Y0033584D01*
X0086381Y0031185D02*
X0092047Y0031185D01*
X0091447Y0028787D02*
X0086496Y0028787D01*
X0086496Y0026388D02*
X0091447Y0026388D01*
X0091447Y0023990D02*
X0086496Y0023990D01*
X0086769Y0021591D02*
X0092097Y0021591D01*
X0087500Y0019193D02*
X0129200Y0019193D01*
X0129081Y0016794D02*
X0087500Y0016794D01*
X0087500Y0014396D02*
X0129562Y0014396D01*
X0130485Y0012321D02*
X0130485Y0012321D01*
X0130845Y0011997D02*
X0087500Y0011997D01*
X0102353Y0031185D02*
X0102820Y0031185D01*
X0052200Y0031185D02*
X0052200Y0031185D01*
X0051854Y0029800D02*
X0051170Y0029908D01*
X0050511Y0030122D01*
X0049894Y0030437D01*
X0049334Y0030844D01*
X0048844Y0031334D01*
X0048437Y0031894D01*
X0048122Y0032511D01*
X0047908Y0033170D01*
X0047800Y0033854D01*
X0047800Y0034200D01*
X0052200Y0034200D01*
X0052200Y0034200D01*
X0052200Y0029800D01*
X0051854Y0029800D01*
X0048992Y0031185D02*
X0046256Y0031185D01*
X0047200Y0033584D02*
X0047843Y0033584D01*
X0048170Y0035982D02*
X0046874Y0035982D01*
X0048472Y0038381D02*
X0050828Y0038381D01*
X0052200Y0038381D02*
X0052200Y0038381D01*
X0052200Y0035982D02*
X0052200Y0035982D01*
X0052200Y0033584D02*
X0052200Y0033584D01*
X0029310Y0038381D02*
X0021888Y0038381D01*
X0024287Y0035982D02*
X0027526Y0035982D01*
X0027200Y0033584D02*
X0026685Y0033584D01*
X0011901Y0093546D02*
X0010500Y0093546D01*
D26*
X0027200Y0094700D03*
X0032200Y0094700D03*
X0032200Y0099700D03*
X0095200Y0063700D03*
X0095200Y0059700D03*
X0099200Y0059700D03*
X0099200Y0063700D03*
X0097200Y0039700D03*
X0092200Y0039700D03*
X0087200Y0039700D03*
X0112200Y0094700D03*
X0117200Y0094700D03*
X0112200Y0099700D03*
D27*
X0087810Y0055794D02*
X0082143Y0055794D01*
X0072200Y0045851D01*
X0068549Y0042200D01*
X0047200Y0042200D01*
X0042200Y0037200D01*
X0042200Y0034200D01*
D28*
X0124200Y0033700D03*
X0139700Y0033700D03*
M02*
