G75*
%MOIN*%
%OFA0B0*%
%FSLAX25Y25*%
%IPPOS*%
%LPD*%
%AMOC8*
5,1,8,0,0,1.08239X$1,22.5*
%
%ADD10C,0.00600*%
%ADD11C,0.00300*%
D10*
X0017113Y0077500D02*
X0017113Y0081770D01*
X0019288Y0080703D02*
X0019288Y0079635D01*
X0023559Y0079635D01*
X0023559Y0078568D02*
X0023559Y0080703D01*
X0022491Y0081770D01*
X0020356Y0081770D01*
X0019288Y0080703D01*
X0017113Y0079635D02*
X0014978Y0081770D01*
X0013911Y0081770D01*
X0020356Y0077500D02*
X0022491Y0077500D01*
X0023559Y0078568D01*
X0025734Y0081770D02*
X0027869Y0077500D01*
X0030004Y0081770D01*
X0033234Y0081770D02*
X0033234Y0077500D01*
X0034301Y0077500D02*
X0032166Y0077500D01*
X0033234Y0081770D02*
X0034301Y0081770D01*
X0036470Y0081770D02*
X0037537Y0081770D01*
X0039673Y0079635D01*
X0039673Y0077500D02*
X0039673Y0081770D01*
X0041848Y0082838D02*
X0042915Y0083905D01*
X0046118Y0083905D01*
X0046118Y0077500D01*
X0042915Y0077500D01*
X0041848Y0078568D01*
X0041848Y0082838D01*
X0048293Y0076432D02*
X0052564Y0076432D01*
X0054739Y0078568D02*
X0054739Y0082838D01*
X0055806Y0083905D01*
X0059009Y0083905D01*
X0059009Y0077500D01*
X0055806Y0077500D01*
X0054739Y0078568D01*
X0061184Y0077500D02*
X0065455Y0077500D01*
X0065455Y0083905D01*
X0061184Y0083905D01*
X0063319Y0080703D02*
X0065455Y0080703D01*
X0067630Y0077500D02*
X0071900Y0077500D01*
X0071900Y0083905D01*
X0033234Y0083905D02*
X0033234Y0084973D01*
D11*
X0047482Y0062967D02*
X0048100Y0062350D01*
X0049334Y0062350D01*
X0049951Y0062967D01*
X0047482Y0065436D01*
X0047482Y0062967D01*
X0047482Y0065436D02*
X0048100Y0066053D01*
X0049334Y0066053D01*
X0049951Y0065436D01*
X0049951Y0062967D01*
X0051176Y0062967D02*
X0051176Y0062350D01*
X0051793Y0062350D01*
X0051793Y0062967D01*
X0051176Y0062967D01*
X0053007Y0062350D02*
X0055476Y0062350D01*
X0054241Y0062350D02*
X0054241Y0066053D01*
X0055476Y0064819D01*
X0060383Y0062967D02*
X0060383Y0062350D01*
X0061001Y0062350D01*
X0061001Y0062967D01*
X0060383Y0062967D01*
X0062215Y0064819D02*
X0063449Y0062350D01*
X0064684Y0064819D01*
X0065898Y0064202D02*
X0065898Y0063584D01*
X0068367Y0063584D01*
X0068367Y0062967D02*
X0068367Y0064202D01*
X0067750Y0064819D01*
X0066515Y0064819D01*
X0065898Y0064202D01*
X0066515Y0062350D02*
X0067750Y0062350D01*
X0068367Y0062967D01*
X0069581Y0062350D02*
X0070816Y0063584D01*
X0070198Y0063584D02*
X0072050Y0063584D01*
X0072050Y0062350D02*
X0072050Y0066053D01*
X0070198Y0066053D01*
X0069581Y0065436D01*
X0069581Y0064202D01*
X0070198Y0063584D01*
X0069581Y0070350D02*
X0071433Y0070350D01*
X0072050Y0070967D01*
X0072050Y0072202D01*
X0071433Y0072819D01*
X0069581Y0072819D01*
X0068367Y0072202D02*
X0068367Y0070967D01*
X0067750Y0070350D01*
X0065898Y0070350D01*
X0064684Y0070350D02*
X0062832Y0070350D01*
X0062215Y0070967D01*
X0062215Y0072202D01*
X0062832Y0072819D01*
X0064684Y0072819D01*
X0065898Y0072819D02*
X0067750Y0072819D01*
X0068367Y0072202D01*
X0064684Y0074053D02*
X0064684Y0070350D01*
X0061001Y0070350D02*
X0061001Y0072819D01*
X0061001Y0071584D02*
X0059766Y0072819D01*
X0059149Y0072819D01*
X0057931Y0072819D02*
X0057931Y0070967D01*
X0057314Y0070350D01*
X0055463Y0070350D01*
X0055463Y0072819D01*
X0054248Y0072202D02*
X0054248Y0070967D01*
X0053631Y0070350D01*
X0051779Y0070350D01*
X0050565Y0070967D02*
X0050565Y0072202D01*
X0049948Y0072819D01*
X0048713Y0072819D01*
X0048096Y0072202D01*
X0048096Y0071584D01*
X0050565Y0071584D01*
X0050565Y0070967D02*
X0049948Y0070350D01*
X0048713Y0070350D01*
X0046882Y0070967D02*
X0046882Y0073436D01*
X0046265Y0074053D01*
X0045030Y0074053D01*
X0044413Y0073436D01*
X0044413Y0072202D01*
X0045030Y0071584D01*
X0045030Y0072819D01*
X0046265Y0072819D01*
X0046265Y0071584D01*
X0045030Y0071584D01*
X0044413Y0070967D02*
X0045030Y0070350D01*
X0046265Y0070350D01*
X0046882Y0070967D01*
X0043199Y0070967D02*
X0042582Y0070350D01*
X0040730Y0070350D01*
X0040730Y0069733D02*
X0040730Y0072819D01*
X0042582Y0072819D01*
X0043199Y0072202D01*
X0043199Y0070967D01*
X0041347Y0069116D02*
X0040730Y0069733D01*
X0041347Y0069116D02*
X0041964Y0069116D01*
X0039516Y0070350D02*
X0039516Y0072819D01*
X0038898Y0072819D01*
X0038281Y0072202D01*
X0037664Y0072819D01*
X0037047Y0072202D01*
X0037047Y0070350D01*
X0038281Y0070350D02*
X0038281Y0072202D01*
X0035832Y0070967D02*
X0035215Y0071584D01*
X0033364Y0071584D01*
X0033364Y0072202D02*
X0033364Y0070350D01*
X0035215Y0070350D01*
X0035832Y0070967D01*
X0035215Y0072819D02*
X0033981Y0072819D01*
X0033364Y0072202D01*
X0032149Y0072819D02*
X0031532Y0072819D01*
X0031532Y0070350D01*
X0032149Y0070350D02*
X0030915Y0070350D01*
X0029694Y0070350D02*
X0028459Y0070350D01*
X0029077Y0070350D02*
X0029077Y0074053D01*
X0029694Y0074053D01*
X0031532Y0074053D02*
X0031532Y0074670D01*
X0027238Y0070967D02*
X0026621Y0070967D01*
X0026621Y0070350D01*
X0027238Y0070350D01*
X0027238Y0070967D01*
X0025397Y0070967D02*
X0024780Y0070350D01*
X0022928Y0070350D01*
X0021714Y0070967D02*
X0021097Y0070350D01*
X0019862Y0070350D01*
X0019245Y0070967D01*
X0019245Y0072202D01*
X0019862Y0072819D01*
X0021097Y0072819D01*
X0021714Y0072202D01*
X0021714Y0070967D01*
X0022928Y0072819D02*
X0024780Y0072819D01*
X0025397Y0072202D01*
X0025397Y0070967D01*
X0018031Y0070350D02*
X0018031Y0072819D01*
X0017413Y0072819D01*
X0016796Y0072202D01*
X0016179Y0072819D01*
X0015562Y0072202D01*
X0015562Y0070350D01*
X0016796Y0070350D02*
X0016796Y0072202D01*
X0051779Y0072819D02*
X0053631Y0072819D01*
X0054248Y0072202D01*
M02*
